<svg width="520" height="349" viewBox="0 0 520 349" fill="none" xmlns="http://www.w3.org/2000/svg">
<rect width="520" height="349" rx="16" fill="#F5FDF9"/>
<path opacity="0.75" d="M97.98 46.332C97.98 44.05 96.454 42.51 94.312 42.51C92.17 42.51 90.588 44.092 90.588 46.29C90.588 48.502 92.184 50.084 94.578 50.084C95.81 50.084 96.832 49.664 97.504 48.88L96.762 48.012C96.216 48.614 95.488 48.908 94.62 48.908C93.15 48.908 92.1 48.04 91.932 46.738H97.952C97.966 46.612 97.98 46.444 97.98 46.332ZM94.312 43.644C95.614 43.644 96.552 44.526 96.692 45.772H91.932C92.072 44.512 93.024 43.644 94.312 43.644ZM106.599 50L103.645 46.206L106.445 42.58H104.975L102.945 45.254L100.901 42.58H99.4032L102.189 46.206L99.2632 50H100.761L102.931 47.158L105.073 50H106.599ZM112.7 42.51C111.608 42.51 110.656 42.93 110.054 43.756V42.58H108.766V52.716H110.11V48.88C110.726 49.678 111.65 50.084 112.7 50.084C114.87 50.084 116.452 48.572 116.452 46.29C116.452 44.022 114.87 42.51 112.7 42.51ZM112.588 48.908C111.174 48.908 110.096 47.872 110.096 46.29C110.096 44.722 111.174 43.686 112.588 43.686C114.016 43.686 115.094 44.722 115.094 46.29C115.094 47.872 114.016 48.908 112.588 48.908ZM122.187 50.084C124.413 50.084 126.037 48.502 126.037 46.29C126.037 44.078 124.413 42.51 122.187 42.51C119.961 42.51 118.323 44.078 118.323 46.29C118.323 48.502 119.961 50.084 122.187 50.084ZM122.187 48.908C120.759 48.908 119.681 47.872 119.681 46.29C119.681 44.708 120.759 43.686 122.187 43.686C123.615 43.686 124.679 44.708 124.679 46.29C124.679 47.872 123.615 48.908 122.187 48.908ZM129.883 43.826V42.58H128.595V50H129.939V46.304C129.939 44.68 130.835 43.798 132.277 43.798C132.375 43.798 132.473 43.798 132.585 43.812V42.51C131.283 42.51 130.359 42.958 129.883 43.826ZM138.995 48.6C138.715 48.824 138.337 48.95 137.945 48.95C137.203 48.95 136.783 48.502 136.783 47.704V43.686H138.911V42.58H136.783V40.956H135.439V42.58H134.179V43.686H135.439V47.76C135.439 49.258 136.293 50.084 137.791 50.084C138.393 50.084 139.009 49.916 139.415 49.566L138.995 48.6ZM146.871 41.152C147.403 41.152 147.781 40.76 147.781 40.256C147.781 39.78 147.389 39.402 146.871 39.402C146.353 39.402 145.961 39.794 145.961 40.284C145.961 40.774 146.353 41.152 146.871 41.152ZM146.199 50H147.543V42.58H146.199V50ZM154.772 42.51C153.596 42.51 152.644 42.944 152.098 43.7V42.58H150.81V50H152.154V46.178C152.154 44.568 153.078 43.714 154.506 43.714C155.78 43.714 156.508 44.428 156.508 45.884V50H157.852V45.73C157.852 43.546 156.578 42.51 154.772 42.51ZM164.791 48.6C164.511 48.824 164.133 48.95 163.741 48.95C162.999 48.95 162.579 48.502 162.579 47.704V43.686H164.707V42.58H162.579V40.956H161.235V42.58H159.975V43.686H161.235V47.76C161.235 49.258 162.089 50.084 163.587 50.084C164.189 50.084 164.805 49.916 165.211 49.566L164.791 48.6ZM173.996 46.332C173.996 44.05 172.47 42.51 170.328 42.51C168.186 42.51 166.604 44.092 166.604 46.29C166.604 48.502 168.2 50.084 170.594 50.084C171.826 50.084 172.848 49.664 173.52 48.88L172.778 48.012C172.232 48.614 171.504 48.908 170.636 48.908C169.166 48.908 168.116 48.04 167.948 46.738H173.968C173.982 46.612 173.996 46.444 173.996 46.332ZM170.328 43.644C171.63 43.644 172.568 44.526 172.708 45.772H167.948C168.088 44.512 169.04 43.644 170.328 43.644ZM177.85 43.826V42.58H176.562V50H177.906V46.304C177.906 44.68 178.802 43.798 180.244 43.798C180.342 43.798 180.44 43.798 180.552 43.812V42.51C179.25 42.51 178.326 42.958 177.85 43.826ZM185.72 40.634C186.112 40.634 186.476 40.774 186.756 40.984L187.162 39.962C186.784 39.668 186.224 39.528 185.65 39.528C184.068 39.528 183.2 40.48 183.2 41.922V42.58H181.94V43.686H183.2V50H184.544V43.686H186.672V42.58H184.516V41.936C184.516 41.082 184.922 40.634 185.72 40.634ZM191.205 42.51C190.015 42.51 188.909 42.846 188.139 43.462L188.699 44.47C189.273 43.98 190.169 43.672 191.051 43.672C192.381 43.672 193.039 44.33 193.039 45.464V45.73H190.911C188.699 45.73 187.929 46.71 187.929 47.9C187.929 49.188 188.993 50.084 190.673 50.084C191.835 50.084 192.661 49.692 193.109 49.02V50H194.383V45.52C194.383 43.49 193.235 42.51 191.205 42.51ZM190.897 49.048C189.875 49.048 189.259 48.586 189.259 47.844C189.259 47.214 189.637 46.696 190.967 46.696H193.039V47.732C192.703 48.586 191.905 49.048 190.897 49.048ZM200.845 50.084C202.175 50.084 203.281 49.524 203.869 48.488L202.847 47.844C202.371 48.572 201.643 48.908 200.831 48.908C199.375 48.908 198.283 47.9 198.283 46.29C198.283 44.708 199.375 43.686 200.831 43.686C201.643 43.686 202.371 44.022 202.847 44.75L203.869 44.092C203.281 43.056 202.175 42.51 200.845 42.51C198.563 42.51 196.925 44.078 196.925 46.29C196.925 48.502 198.563 50.084 200.845 50.084ZM212.906 46.332C212.906 44.05 211.38 42.51 209.238 42.51C207.096 42.51 205.514 44.092 205.514 46.29C205.514 48.502 207.11 50.084 209.504 50.084C210.736 50.084 211.758 49.664 212.43 48.88L211.688 48.012C211.142 48.614 210.414 48.908 209.546 48.908C208.076 48.908 207.026 48.04 206.858 46.738H212.878C212.892 46.612 212.906 46.444 212.906 46.332ZM209.238 43.644C210.54 43.644 211.478 44.526 211.618 45.772H206.858C206.998 44.512 207.95 43.644 209.238 43.644ZM220.128 50H221.528V40.2H220.128V50ZM231.756 44.918C232.526 44.54 233.072 43.798 233.072 42.734C233.072 41.152 231.812 40.2 229.558 40.2H225.162V50H229.838C232.316 50 233.59 49.034 233.59 47.354C233.59 46.052 232.862 45.226 231.756 44.918ZM229.432 41.334C230.86 41.334 231.672 41.866 231.672 42.902C231.672 43.938 230.86 44.47 229.432 44.47H226.562V41.334H229.432ZM229.782 48.866H226.562V45.604H229.782C231.336 45.604 232.176 46.108 232.176 47.242C232.176 48.376 231.336 48.866 229.782 48.866ZM237.55 43.826V42.58H236.262V50H237.606V46.304C237.606 44.68 238.502 43.798 239.944 43.798C240.042 43.798 240.14 43.798 240.252 43.812V42.51C238.95 42.51 238.026 42.958 237.55 43.826ZM243.28 41.152C243.812 41.152 244.19 40.76 244.19 40.256C244.19 39.78 243.798 39.402 243.28 39.402C242.762 39.402 242.37 39.794 242.37 40.284C242.37 40.774 242.762 41.152 243.28 41.152ZM242.608 50H243.952V42.58H242.608V50ZM252.874 39.612V43.7C252.258 42.902 251.334 42.51 250.284 42.51C248.114 42.51 246.532 44.022 246.532 46.29C246.532 48.558 248.114 50.084 250.284 50.084C251.376 50.084 252.328 49.664 252.93 48.824V50H254.218V39.612H252.874ZM250.396 48.908C248.968 48.908 247.89 47.872 247.89 46.29C247.89 44.708 248.968 43.686 250.396 43.686C251.81 43.686 252.888 44.708 252.888 46.29C252.888 47.872 251.81 48.908 250.396 48.908ZM263.285 42.58V43.728C262.655 42.916 261.647 42.51 260.541 42.51C258.399 42.51 256.775 43.952 256.775 46.094C256.775 48.236 258.399 49.692 260.541 49.692C261.605 49.692 262.571 49.314 263.215 48.544V49.132C263.215 50.812 262.417 51.624 260.667 51.624C259.575 51.624 258.497 51.246 257.811 50.658L257.167 51.694C257.979 52.422 259.351 52.8 260.709 52.8C263.229 52.8 264.559 51.61 264.559 48.992V42.58H263.285ZM260.695 48.516C259.197 48.516 258.133 47.522 258.133 46.094C258.133 44.652 259.197 43.686 260.695 43.686C262.179 43.686 263.243 44.652 263.243 46.094C263.243 47.522 262.179 48.516 260.695 48.516ZM274.533 46.332C274.533 44.05 273.007 42.51 270.865 42.51C268.723 42.51 267.141 44.092 267.141 46.29C267.141 48.502 268.737 50.084 271.131 50.084C272.363 50.084 273.385 49.664 274.057 48.88L273.315 48.012C272.769 48.614 272.041 48.908 271.173 48.908C269.703 48.908 268.653 48.04 268.485 46.738H274.505C274.519 46.612 274.533 46.444 274.533 46.332ZM270.865 43.644C272.167 43.644 273.105 44.526 273.245 45.772H268.485C268.625 44.512 269.577 43.644 270.865 43.644ZM277.888 50H279.274V41.418H282.634V40.2H274.528V41.418H277.888V50ZM285.773 43.826V42.58H284.485V50H285.829V46.304C285.829 44.68 286.725 43.798 288.167 43.798C288.265 43.798 288.363 43.798 288.475 43.812V42.51C287.173 42.51 286.249 42.958 285.773 43.826ZM293.52 42.51C292.33 42.51 291.224 42.846 290.454 43.462L291.014 44.47C291.588 43.98 292.484 43.672 293.366 43.672C294.696 43.672 295.354 44.33 295.354 45.464V45.73H293.226C291.014 45.73 290.244 46.71 290.244 47.9C290.244 49.188 291.308 50.084 292.988 50.084C294.15 50.084 294.976 49.692 295.424 49.02V50H296.698V45.52C296.698 43.49 295.55 42.51 293.52 42.51ZM293.212 49.048C292.19 49.048 291.574 48.586 291.574 47.844C291.574 47.214 291.952 46.696 293.282 46.696H295.354V47.732C295.018 48.586 294.22 49.048 293.212 49.048ZM303.847 42.51C302.671 42.51 301.719 42.944 301.173 43.7V42.58H299.885V50H301.229V46.178C301.229 44.568 302.153 43.714 303.581 43.714C304.855 43.714 305.583 44.428 305.583 45.884V50H306.927V45.73C306.927 43.546 305.653 42.51 303.847 42.51ZM312.242 50.084C314.216 50.084 315.448 49.23 315.448 47.886C315.448 45.002 310.744 46.43 310.744 44.68C310.744 44.092 311.318 43.658 312.494 43.658C313.222 43.658 313.964 43.812 314.636 44.246L315.21 43.182C314.566 42.762 313.474 42.51 312.508 42.51C310.604 42.51 309.414 43.406 309.414 44.736C309.414 47.69 314.104 46.248 314.104 47.914C314.104 48.544 313.586 48.922 312.34 48.922C311.374 48.922 310.366 48.6 309.736 48.152L309.176 49.216C309.792 49.706 311.01 50.084 312.242 50.084ZM320.53 42.51C319.34 42.51 318.234 42.846 317.464 43.462L318.024 44.47C318.598 43.98 319.494 43.672 320.376 43.672C321.706 43.672 322.364 44.33 322.364 45.464V45.73H320.236C318.024 45.73 317.254 46.71 317.254 47.9C317.254 49.188 318.318 50.084 319.998 50.084C321.16 50.084 321.986 49.692 322.434 49.02V50H323.708V45.52C323.708 43.49 322.56 42.51 320.53 42.51ZM320.222 49.048C319.2 49.048 318.584 48.586 318.584 47.844C318.584 47.214 318.962 46.696 320.292 46.696H322.364V47.732C322.028 48.586 321.23 49.048 320.222 49.048ZM330.17 50.084C331.5 50.084 332.606 49.524 333.194 48.488L332.172 47.844C331.696 48.572 330.968 48.908 330.156 48.908C328.7 48.908 327.608 47.9 327.608 46.29C327.608 44.708 328.7 43.686 330.156 43.686C330.968 43.686 331.696 44.022 332.172 44.75L333.194 44.092C332.606 43.056 331.5 42.51 330.17 42.51C327.888 42.51 326.25 44.078 326.25 46.29C326.25 48.502 327.888 50.084 330.17 50.084ZM339.482 48.6C339.202 48.824 338.824 48.95 338.432 48.95C337.69 48.95 337.27 48.502 337.27 47.704V43.686H339.398V42.58H337.27V40.956H335.926V42.58H334.666V43.686H335.926V47.76C335.926 49.258 336.78 50.084 338.278 50.084C338.88 50.084 339.496 49.916 339.902 49.566L339.482 48.6ZM342.899 41.152C343.431 41.152 343.809 40.76 343.809 40.256C343.809 39.78 343.417 39.402 342.899 39.402C342.381 39.402 341.989 39.794 341.989 40.284C341.989 40.774 342.381 41.152 342.899 41.152ZM342.227 50H343.571V42.58H342.227V50ZM350.015 50.084C352.241 50.084 353.865 48.502 353.865 46.29C353.865 44.078 352.241 42.51 350.015 42.51C347.789 42.51 346.151 44.078 346.151 46.29C346.151 48.502 347.789 50.084 350.015 50.084ZM350.015 48.908C348.587 48.908 347.509 47.872 347.509 46.29C347.509 44.708 348.587 43.686 350.015 43.686C351.443 43.686 352.507 44.708 352.507 46.29C352.507 47.872 351.443 48.908 350.015 48.908ZM360.386 42.51C359.21 42.51 358.258 42.944 357.712 43.7V42.58H356.424V50H357.768V46.178C357.768 44.568 358.692 43.714 360.12 43.714C361.394 43.714 362.122 44.428 362.122 45.884V50H363.466V45.73C363.466 43.546 362.192 42.51 360.386 42.51ZM133.4 68.876V65.81C133.4 65.11 133.736 64.718 134.436 64.718H134.786V63.612H134.17C132.77 63.612 132.056 64.326 132.056 65.684V68.904C132.056 69.394 131.818 69.604 131.426 69.604H130.936V70.724H131.426C131.818 70.724 132.056 70.934 132.056 71.424V74.644C132.056 76.002 132.77 76.716 134.17 76.716H134.786V75.61H134.436C133.736 75.61 133.4 75.218 133.4 74.518V71.452C133.4 70.654 133.148 70.332 132.63 70.164C133.148 69.996 133.4 69.674 133.4 68.876ZM93.976 90.51C92.786 90.51 91.68 90.846 90.91 91.462L91.47 92.47C92.044 91.98 92.94 91.672 93.822 91.672C95.152 91.672 95.81 92.33 95.81 93.464V93.73H93.682C91.47 93.73 90.7 94.71 90.7 95.9C90.7 97.188 91.764 98.084 93.444 98.084C94.606 98.084 95.432 97.692 95.88 97.02V98H97.154V93.52C97.154 91.49 96.006 90.51 93.976 90.51ZM93.668 97.048C92.646 97.048 92.03 96.586 92.03 95.844C92.03 95.214 92.408 94.696 93.738 94.696H95.81V95.732C95.474 96.586 94.676 97.048 93.668 97.048ZM103.616 98.084C104.946 98.084 106.052 97.524 106.64 96.488L105.618 95.844C105.142 96.572 104.414 96.908 103.602 96.908C102.146 96.908 101.054 95.9 101.054 94.29C101.054 92.708 102.146 91.686 103.602 91.686C104.414 91.686 105.142 92.022 105.618 92.75L106.64 92.092C106.052 91.056 104.946 90.51 103.616 90.51C101.334 90.51 99.6962 92.078 99.6962 94.29C99.6962 96.502 101.334 98.084 103.616 98.084ZM112.928 96.6C112.648 96.824 112.27 96.95 111.878 96.95C111.136 96.95 110.716 96.502 110.716 95.704V91.686H112.844V90.58H110.716V88.956H109.372V90.58H108.112V91.686H109.372V95.76C109.372 97.258 110.226 98.084 111.724 98.084C112.326 98.084 112.942 97.916 113.348 97.566L112.928 96.6ZM116.345 89.152C116.877 89.152 117.255 88.76 117.255 88.256C117.255 87.78 116.863 87.402 116.345 87.402C115.827 87.402 115.435 87.794 115.435 88.284C115.435 88.774 115.827 89.152 116.345 89.152ZM115.673 98H117.017V90.58H115.673V98ZM123.461 98.084C125.687 98.084 127.311 96.502 127.311 94.29C127.311 92.078 125.687 90.51 123.461 90.51C121.235 90.51 119.597 92.078 119.597 94.29C119.597 96.502 121.235 98.084 123.461 98.084ZM123.461 96.908C122.033 96.908 120.955 95.872 120.955 94.29C120.955 92.708 122.033 91.686 123.461 91.686C124.889 91.686 125.953 92.708 125.953 94.29C125.953 95.872 124.889 96.908 123.461 96.908ZM133.832 90.51C132.656 90.51 131.704 90.944 131.158 91.7V90.58H129.87V98H131.214V94.178C131.214 92.568 132.138 91.714 133.566 91.714C134.84 91.714 135.568 92.428 135.568 93.884V98H136.912V93.73C136.912 91.546 135.638 90.51 133.832 90.51ZM140.295 98H141.695V88.2H140.295V98ZM150.789 87.612V91.7C150.173 90.902 149.249 90.51 148.199 90.51C146.029 90.51 144.447 92.022 144.447 94.29C144.447 96.558 146.029 98.084 148.199 98.084C149.291 98.084 150.243 97.664 150.845 96.824V98H152.133V87.612H150.789ZM148.311 96.908C146.883 96.908 145.805 95.872 145.805 94.29C145.805 92.708 146.883 91.686 148.311 91.686C149.725 91.686 150.803 92.708 150.803 94.29C150.803 95.872 149.725 96.908 148.311 96.908ZM155.698 92.428C156.202 92.428 156.622 92.022 156.622 91.462C156.622 90.902 156.202 90.51 155.698 90.51C155.18 90.51 154.746 90.902 154.746 91.462C154.746 92.022 155.18 92.428 155.698 92.428ZM155.698 98.084C156.202 98.084 156.622 97.678 156.622 97.118C156.622 96.558 156.202 96.166 155.698 96.166C155.18 96.166 154.746 96.558 154.746 97.118C154.746 97.678 155.18 98.084 155.698 98.084ZM166.038 92.918C166.808 92.54 167.354 91.798 167.354 90.734C167.354 89.152 166.094 88.2 163.84 88.2H159.444V98H164.12C166.598 98 167.872 97.034 167.872 95.354C167.872 94.052 167.144 93.226 166.038 92.918ZM163.714 89.334C165.142 89.334 165.954 89.866 165.954 90.902C165.954 91.938 165.142 92.47 163.714 92.47H160.844V89.334H163.714ZM164.064 96.866H160.844V93.604H164.064C165.618 93.604 166.458 94.108 166.458 95.242C166.458 96.376 165.618 96.866 164.064 96.866ZM171.216 89.152C171.748 89.152 172.126 88.76 172.126 88.256C172.126 87.78 171.734 87.402 171.216 87.402C170.698 87.402 170.306 87.794 170.306 88.284C170.306 88.774 170.698 89.152 171.216 89.152ZM170.544 98H171.888V90.58H170.544V98ZM180.978 90.58V91.728C180.348 90.916 179.34 90.51 178.234 90.51C176.092 90.51 174.468 91.952 174.468 94.094C174.468 96.236 176.092 97.692 178.234 97.692C179.298 97.692 180.264 97.314 180.908 96.544V97.132C180.908 98.812 180.11 99.624 178.36 99.624C177.268 99.624 176.19 99.246 175.504 98.658L174.86 99.694C175.672 100.422 177.044 100.8 178.402 100.8C180.922 100.8 182.252 99.61 182.252 96.992V90.58H180.978ZM178.388 96.516C176.89 96.516 175.826 95.522 175.826 94.094C175.826 92.652 176.89 91.686 178.388 91.686C179.872 91.686 180.936 92.652 180.936 94.094C180.936 95.522 179.872 96.516 178.388 96.516ZM185.716 98H187.116V88.2H185.716V98ZM194.516 90.51C193.34 90.51 192.388 90.944 191.842 91.7V90.58H190.554V98H191.898V94.178C191.898 92.568 192.822 91.714 194.25 91.714C195.524 91.714 196.252 92.428 196.252 93.884V98H197.596V93.73C197.596 91.546 196.322 90.51 194.516 90.51ZM204.535 96.6C204.255 96.824 203.877 96.95 203.485 96.95C202.743 96.95 202.323 96.502 202.323 95.704V91.686H204.451V90.58H202.323V88.956H200.979V90.58H199.719V91.686H200.979V95.76C200.979 97.258 201.833 98.084 203.331 98.084C203.933 98.084 204.549 97.916 204.955 97.566L204.535 96.6ZM207.753 96.166C207.221 96.166 206.815 96.558 206.815 97.118C206.815 97.538 207.053 97.86 207.403 97.986L206.885 100.072H207.767L208.425 98.126C208.607 97.608 208.663 97.398 208.663 97.118C208.663 96.572 208.285 96.166 207.753 96.166ZM96.93 111.612V115.7C96.314 114.902 95.39 114.51 94.34 114.51C92.17 114.51 90.588 116.022 90.588 118.29C90.588 120.558 92.17 122.084 94.34 122.084C95.432 122.084 96.384 121.664 96.986 120.824V122H98.274V111.612H96.93ZM94.452 120.908C93.024 120.908 91.946 119.872 91.946 118.29C91.946 116.708 93.024 115.686 94.452 115.686C95.866 115.686 96.944 116.708 96.944 118.29C96.944 119.872 95.866 120.908 94.452 120.908ZM108.223 118.332C108.223 116.05 106.697 114.51 104.555 114.51C102.413 114.51 100.831 116.092 100.831 118.29C100.831 120.502 102.427 122.084 104.821 122.084C106.053 122.084 107.075 121.664 107.747 120.88L107.005 120.012C106.459 120.614 105.731 120.908 104.863 120.908C103.393 120.908 102.343 120.04 102.175 118.738H108.195C108.209 118.612 108.223 118.444 108.223 118.332ZM104.555 115.644C105.857 115.644 106.795 116.526 106.935 117.772H102.175C102.315 116.512 103.267 115.644 104.555 115.644ZM114.023 122.084C115.353 122.084 116.459 121.524 117.047 120.488L116.025 119.844C115.549 120.572 114.821 120.908 114.009 120.908C112.553 120.908 111.461 119.9 111.461 118.29C111.461 116.708 112.553 115.686 114.009 115.686C114.821 115.686 115.549 116.022 116.025 116.75L117.047 116.092C116.459 115.056 115.353 114.51 114.023 114.51C111.741 114.51 110.103 116.078 110.103 118.29C110.103 120.502 111.741 122.084 114.023 122.084ZM120.159 113.152C120.691 113.152 121.069 112.76 121.069 112.256C121.069 111.78 120.677 111.402 120.159 111.402C119.641 111.402 119.249 111.794 119.249 112.284C119.249 112.774 119.641 113.152 120.159 113.152ZM119.487 122H120.831V114.58H119.487V122ZM133.379 114.51C132.119 114.51 131.083 115.042 130.523 115.882C130.033 114.958 129.081 114.51 127.947 114.51C126.827 114.51 125.917 114.93 125.385 115.686V114.58H124.097V122H125.441V118.178C125.441 116.568 126.323 115.714 127.667 115.714C128.885 115.714 129.585 116.428 129.585 117.884V122H130.929V118.178C130.929 116.568 131.811 115.714 133.155 115.714C134.373 115.714 135.073 116.428 135.073 117.884V122H136.417V117.73C136.417 115.546 135.185 114.51 133.379 114.51ZM142.292 114.51C141.102 114.51 139.996 114.846 139.226 115.462L139.786 116.47C140.36 115.98 141.256 115.672 142.138 115.672C143.468 115.672 144.126 116.33 144.126 117.464V117.73H141.998C139.786 117.73 139.016 118.71 139.016 119.9C139.016 121.188 140.08 122.084 141.76 122.084C142.922 122.084 143.748 121.692 144.196 121.02V122H145.47V117.52C145.47 115.49 144.322 114.51 142.292 114.51ZM141.984 121.048C140.962 121.048 140.346 120.586 140.346 119.844C140.346 119.214 140.724 118.696 142.054 118.696H144.126V119.732C143.79 120.586 142.992 121.048 141.984 121.048ZM148.658 122H150.002V111.612H148.658V122ZM155.396 122.084C157.37 122.084 158.602 121.23 158.602 119.886C158.602 117.002 153.898 118.43 153.898 116.68C153.898 116.092 154.472 115.658 155.648 115.658C156.376 115.658 157.118 115.812 157.79 116.246L158.364 115.182C157.72 114.762 156.628 114.51 155.662 114.51C153.758 114.51 152.568 115.406 152.568 116.736C152.568 119.69 157.258 118.248 157.258 119.914C157.258 120.544 156.74 120.922 155.494 120.922C154.528 120.922 153.52 120.6 152.89 120.152L152.33 121.216C152.946 121.706 154.164 122.084 155.396 122.084ZM161.303 116.428C161.807 116.428 162.227 116.022 162.227 115.462C162.227 114.902 161.807 114.51 161.303 114.51C160.785 114.51 160.351 114.902 160.351 115.462C160.351 116.022 160.785 116.428 161.303 116.428ZM161.303 122.084C161.807 122.084 162.227 121.678 162.227 121.118C162.227 120.558 161.807 120.166 161.303 120.166C160.785 120.166 160.351 120.558 160.351 121.118C160.351 121.678 160.785 122.084 161.303 122.084ZM168.815 114.51C167.639 114.51 166.687 114.944 166.141 115.7V114.58H164.853V122H166.197V118.178C166.197 116.568 167.121 115.714 168.549 115.714C169.823 115.714 170.551 116.428 170.551 117.884V122H171.895V117.73C171.895 115.546 170.621 114.51 168.815 114.51ZM180.655 114.58V118.416C180.655 120.012 179.759 120.88 178.359 120.88C177.085 120.88 176.357 120.152 176.357 118.696V114.58H175.013V118.85C175.013 121.034 176.287 122.084 178.205 122.084C179.255 122.084 180.179 121.65 180.725 120.88V122H181.999V114.58H180.655ZM194.539 114.51C193.279 114.51 192.243 115.042 191.683 115.882C191.193 114.958 190.241 114.51 189.107 114.51C187.987 114.51 187.077 114.93 186.545 115.686V114.58H185.257V122H186.601V118.178C186.601 116.568 187.483 115.714 188.827 115.714C190.045 115.714 190.745 116.428 190.745 117.884V122H192.089V118.178C192.089 116.568 192.971 115.714 194.315 115.714C195.533 115.714 196.233 116.428 196.233 117.884V122H197.577V117.73C197.577 115.546 196.345 114.51 194.539 114.51ZM204.684 114.51C203.634 114.51 202.71 114.902 202.094 115.7V111.612H200.75V122H202.038V120.824C202.64 121.664 203.592 122.084 204.684 122.084C206.854 122.084 208.436 120.558 208.436 118.29C208.436 116.022 206.854 114.51 204.684 114.51ZM204.572 120.908C203.158 120.908 202.08 119.872 202.08 118.29C202.08 116.708 203.158 115.686 204.572 115.686C206 115.686 207.078 116.708 207.078 118.29C207.078 119.872 206 120.908 204.572 120.908ZM217.699 118.332C217.699 116.05 216.173 114.51 214.031 114.51C211.889 114.51 210.307 116.092 210.307 118.29C210.307 120.502 211.903 122.084 214.297 122.084C215.529 122.084 216.551 121.664 217.223 120.88L216.481 120.012C215.935 120.614 215.207 120.908 214.339 120.908C212.869 120.908 211.819 120.04 211.651 118.738H217.671C217.685 118.612 217.699 118.444 217.699 118.332ZM214.031 115.644C215.333 115.644 216.271 116.526 216.411 117.772H211.651C211.791 116.512 212.743 115.644 214.031 115.644ZM221.553 115.826V114.58H220.265V122H221.609V118.304C221.609 116.68 222.505 115.798 223.947 115.798C224.045 115.798 224.143 115.798 224.255 115.812V114.51C222.953 114.51 222.029 114.958 221.553 115.826ZM226.907 120.166C226.375 120.166 225.969 120.558 225.969 121.118C225.969 121.538 226.207 121.86 226.557 121.986L226.039 124.072H226.921L227.579 122.126C227.761 121.608 227.817 121.398 227.817 121.118C227.817 120.572 227.439 120.166 226.907 120.166ZM91.946 137.152C92.478 137.152 92.856 136.76 92.856 136.256C92.856 135.78 92.464 135.402 91.946 135.402C91.428 135.402 91.036 135.794 91.036 136.284C91.036 136.774 91.428 137.152 91.946 137.152ZM91.274 146H92.618V138.58H91.274V146ZM98.0122 146.084C99.9862 146.084 101.218 145.23 101.218 143.886C101.218 141.002 96.5142 142.43 96.5142 140.68C96.5142 140.092 97.0882 139.658 98.2642 139.658C98.9922 139.658 99.7342 139.812 100.406 140.246L100.98 139.182C100.336 138.762 99.2442 138.51 98.2782 138.51C96.3742 138.51 95.1842 139.406 95.1842 140.736C95.1842 143.69 99.8742 142.248 99.8742 143.914C99.8742 144.544 99.3562 144.922 98.1102 144.922C97.1442 144.922 96.1362 144.6 95.5062 144.152L94.9462 145.216C95.5622 145.706 96.7802 146.084 98.0122 146.084ZM105.194 144.782V141.618H110.108V140.428H105.194V137.418H110.71V136.2H103.794V146H110.906V144.782H105.194ZM120.848 136.2L117.292 144.25L113.764 136.2H112.252L116.564 146H117.95L122.248 136.2H120.848ZM134.628 146L134.614 136.2H133.466L129.434 143.088L125.346 136.2H124.198V146H125.542V138.902L129.084 144.81H129.728L133.27 138.86L133.284 146H134.628ZM138.395 140.428C138.899 140.428 139.319 140.022 139.319 139.462C139.319 138.902 138.899 138.51 138.395 138.51C137.877 138.51 137.443 138.902 137.443 139.462C137.443 140.022 137.877 140.428 138.395 140.428ZM138.395 146.084C138.899 146.084 139.319 145.678 139.319 145.118C139.319 144.558 138.899 144.166 138.395 144.166C137.877 144.166 137.443 144.558 137.443 145.118C137.443 145.678 137.877 146.084 138.395 146.084ZM145.879 138.51C144.829 138.51 143.905 138.902 143.289 139.7V135.612H141.945V146H143.233V144.824C143.835 145.664 144.787 146.084 145.879 146.084C148.049 146.084 149.631 144.558 149.631 142.29C149.631 140.022 148.049 138.51 145.879 138.51ZM145.767 144.908C144.353 144.908 143.275 143.872 143.275 142.29C143.275 140.708 144.353 139.686 145.767 139.686C147.195 139.686 148.273 140.708 148.273 142.29C148.273 143.872 147.195 144.908 145.767 144.908ZM155.366 146.084C157.592 146.084 159.216 144.502 159.216 142.29C159.216 140.078 157.592 138.51 155.366 138.51C153.14 138.51 151.502 140.078 151.502 142.29C151.502 144.502 153.14 146.084 155.366 146.084ZM155.366 144.908C153.938 144.908 152.86 143.872 152.86 142.29C152.86 140.708 153.938 139.686 155.366 139.686C156.794 139.686 157.858 140.708 157.858 142.29C157.858 143.872 156.794 144.908 155.366 144.908ZM164.952 146.084C167.178 146.084 168.802 144.502 168.802 142.29C168.802 140.078 167.178 138.51 164.952 138.51C162.726 138.51 161.088 140.078 161.088 142.29C161.088 144.502 162.726 146.084 164.952 146.084ZM164.952 144.908C163.524 144.908 162.446 143.872 162.446 142.29C162.446 140.708 163.524 139.686 164.952 139.686C166.38 139.686 167.444 140.708 167.444 142.29C167.444 143.872 166.38 144.908 164.952 144.908ZM171.361 146H172.705V135.612H171.361V146ZM182.677 142.332C182.677 140.05 181.151 138.51 179.009 138.51C176.867 138.51 175.285 140.092 175.285 142.29C175.285 144.502 176.881 146.084 179.275 146.084C180.507 146.084 181.529 145.664 182.201 144.88L181.459 144.012C180.913 144.614 180.185 144.908 179.317 144.908C177.847 144.908 176.797 144.04 176.629 142.738H182.649C182.663 142.612 182.677 142.444 182.677 142.332ZM179.009 139.644C180.311 139.644 181.249 140.526 181.389 141.772H176.629C176.769 140.512 177.721 139.644 179.009 139.644ZM187.74 138.51C186.55 138.51 185.444 138.846 184.674 139.462L185.234 140.47C185.808 139.98 186.704 139.672 187.586 139.672C188.916 139.672 189.574 140.33 189.574 141.464V141.73H187.446C185.234 141.73 184.464 142.71 184.464 143.9C184.464 145.188 185.528 146.084 187.208 146.084C188.37 146.084 189.196 145.692 189.644 145.02V146H190.918V141.52C190.918 139.49 189.77 138.51 187.74 138.51ZM187.432 145.048C186.41 145.048 185.794 144.586 185.794 143.844C185.794 143.214 186.172 142.696 187.502 142.696H189.574V143.732C189.238 144.586 188.44 145.048 187.432 145.048ZM198.068 138.51C196.892 138.51 195.94 138.944 195.394 139.7V138.58H194.106V146H195.45V142.178C195.45 140.568 196.374 139.714 197.802 139.714C199.076 139.714 199.804 140.428 199.804 141.884V146H201.148V141.73C201.148 139.546 199.874 138.51 198.068 138.51ZM204.671 144.166C204.139 144.166 203.733 144.558 203.733 145.118C203.733 145.538 203.971 145.86 204.321 145.986L203.803 148.072H204.685L205.343 146.126C205.525 145.608 205.581 145.398 205.581 145.118C205.581 144.572 205.203 144.166 204.671 144.166ZM95.236 162.51C94.06 162.51 93.108 162.944 92.562 163.7V162.58H91.274V170H92.618V166.178C92.618 164.568 93.542 163.714 94.97 163.714C96.244 163.714 96.972 164.428 96.972 165.884V170H98.316V165.73C98.316 163.546 97.042 162.51 95.236 162.51ZM104.205 162.51C103.015 162.51 101.909 162.846 101.139 163.462L101.699 164.47C102.273 163.98 103.169 163.672 104.051 163.672C105.381 163.672 106.039 164.33 106.039 165.464V165.73H103.911C101.699 165.73 100.929 166.71 100.929 167.9C100.929 169.188 101.993 170.084 103.673 170.084C104.835 170.084 105.661 169.692 106.109 169.02V170H107.383V165.52C107.383 163.49 106.235 162.51 104.205 162.51ZM103.897 169.048C102.875 169.048 102.259 168.586 102.259 167.844C102.259 167.214 102.637 166.696 103.967 166.696H106.039V167.732C105.703 168.586 104.905 169.048 103.897 169.048ZM119.852 162.51C118.592 162.51 117.556 163.042 116.996 163.882C116.506 162.958 115.554 162.51 114.42 162.51C113.3 162.51 112.39 162.93 111.858 163.686V162.58H110.57V170H111.914V166.178C111.914 164.568 112.796 163.714 114.14 163.714C115.358 163.714 116.058 164.428 116.058 165.884V170H117.402V166.178C117.402 164.568 118.284 163.714 119.628 163.714C120.846 163.714 121.546 164.428 121.546 165.884V170H122.89V165.73C122.89 163.546 121.658 162.51 119.852 162.51ZM132.81 166.332C132.81 164.05 131.284 162.51 129.142 162.51C127 162.51 125.418 164.092 125.418 166.29C125.418 168.502 127.014 170.084 129.408 170.084C130.64 170.084 131.662 169.664 132.334 168.88L131.592 168.012C131.046 168.614 130.318 168.908 129.45 168.908C127.98 168.908 126.93 168.04 126.762 166.738H132.782C132.796 166.612 132.81 166.444 132.81 166.332ZM129.142 163.644C130.444 163.644 131.382 164.526 131.522 165.772H126.762C126.902 164.512 127.854 163.644 129.142 163.644ZM135.699 164.428C136.203 164.428 136.623 164.022 136.623 163.462C136.623 162.902 136.203 162.51 135.699 162.51C135.181 162.51 134.747 162.902 134.747 163.462C134.747 164.022 135.181 164.428 135.699 164.428ZM135.699 170.084C136.203 170.084 136.623 169.678 136.623 169.118C136.623 168.558 136.203 168.166 135.699 168.166C135.181 168.166 134.747 168.558 134.747 169.118C134.747 169.678 135.181 170.084 135.699 170.084ZM141.377 170.084C143.351 170.084 144.583 169.23 144.583 167.886C144.583 165.002 139.879 166.43 139.879 164.68C139.879 164.092 140.453 163.658 141.629 163.658C142.357 163.658 143.099 163.812 143.771 164.246L144.345 163.182C143.701 162.762 142.609 162.51 141.643 162.51C139.739 162.51 138.549 163.406 138.549 164.736C138.549 167.69 143.239 166.248 143.239 167.914C143.239 168.544 142.721 168.922 141.475 168.922C140.509 168.922 139.501 168.6 138.871 168.152L138.311 169.216C138.927 169.706 140.145 170.084 141.377 170.084ZM150.714 168.6C150.434 168.824 150.056 168.95 149.664 168.95C148.922 168.95 148.502 168.502 148.502 167.704V163.686H150.63V162.58H148.502V160.956H147.158V162.58H145.898V163.686H147.158V167.76C147.158 169.258 148.012 170.084 149.51 170.084C150.112 170.084 150.728 169.916 151.134 169.566L150.714 168.6ZM154.747 163.826V162.58H153.459V170H154.803V166.304C154.803 164.68 155.699 163.798 157.141 163.798C157.239 163.798 157.337 163.798 157.449 163.812V162.51C156.147 162.51 155.223 162.958 154.747 163.826ZM160.478 161.152C161.01 161.152 161.388 160.76 161.388 160.256C161.388 159.78 160.996 159.402 160.478 159.402C159.96 159.402 159.568 159.794 159.568 160.284C159.568 160.774 159.96 161.152 160.478 161.152ZM159.806 170H161.15V162.58H159.806V170ZM168.378 162.51C167.202 162.51 166.25 162.944 165.704 163.7V162.58H164.416V170H165.76V166.178C165.76 164.568 166.684 163.714 168.112 163.714C169.386 163.714 170.114 164.428 170.114 165.884V170H171.458V165.73C171.458 163.546 170.184 162.51 168.378 162.51ZM180.51 162.58V163.728C179.88 162.916 178.872 162.51 177.766 162.51C175.624 162.51 174 163.952 174 166.094C174 168.236 175.624 169.692 177.766 169.692C178.83 169.692 179.796 169.314 180.44 168.544V169.132C180.44 170.812 179.642 171.624 177.892 171.624C176.8 171.624 175.722 171.246 175.036 170.658L174.392 171.694C175.204 172.422 176.576 172.8 177.934 172.8C180.454 172.8 181.784 171.61 181.784 168.992V162.58H180.51ZM177.92 168.516C176.422 168.516 175.358 167.522 175.358 166.094C175.358 164.652 176.422 163.686 177.92 163.686C179.404 163.686 180.468 164.652 180.468 166.094C180.468 167.522 179.404 168.516 177.92 168.516ZM185.388 168.166C184.856 168.166 184.45 168.558 184.45 169.118C184.45 169.538 184.688 169.86 185.038 169.986L184.52 172.072H185.402L186.06 170.126C186.242 169.608 186.298 169.398 186.298 169.118C186.298 168.572 185.92 168.166 185.388 168.166ZM95.026 192.6C94.746 192.824 94.368 192.95 93.976 192.95C93.234 192.95 92.814 192.502 92.814 191.704V187.686H94.942V186.58H92.814V184.956H91.47V186.58H90.21V187.686H91.47V191.76C91.47 193.258 92.324 194.084 93.822 194.084C94.424 194.084 95.04 193.916 95.446 193.566L95.026 192.6ZM100.703 194.084C102.929 194.084 104.553 192.502 104.553 190.29C104.553 188.078 102.929 186.51 100.703 186.51C98.4768 186.51 96.8388 188.078 96.8388 190.29C96.8388 192.502 98.4768 194.084 100.703 194.084ZM100.703 192.908C99.2748 192.908 98.1968 191.872 98.1968 190.29C98.1968 188.708 99.2748 187.686 100.703 187.686C102.131 187.686 103.195 188.708 103.195 190.29C103.195 191.872 102.131 192.908 100.703 192.908ZM112.781 194H114.433L111.003 189.646L114.125 186.58H112.501L108.455 190.276V183.612H107.111V194H108.455V191.97L109.995 190.542L112.781 194ZM122.83 190.332C122.83 188.05 121.304 186.51 119.162 186.51C117.02 186.51 115.438 188.092 115.438 190.29C115.438 192.502 117.034 194.084 119.428 194.084C120.66 194.084 121.682 193.664 122.354 192.88L121.612 192.012C121.066 192.614 120.338 192.908 119.47 192.908C118 192.908 116.95 192.04 116.782 190.738H122.802C122.816 190.612 122.83 190.444 122.83 190.332ZM119.162 187.644C120.464 187.644 121.402 188.526 121.542 189.772H116.782C116.922 188.512 117.874 187.644 119.162 187.644ZM129.358 186.51C128.182 186.51 127.23 186.944 126.684 187.7V186.58H125.396V194H126.74V190.178C126.74 188.568 127.664 187.714 129.092 187.714C130.366 187.714 131.094 188.428 131.094 189.884V194H132.438V189.73C132.438 187.546 131.164 186.51 129.358 186.51ZM135.948 188.428C136.452 188.428 136.872 188.022 136.872 187.462C136.872 186.902 136.452 186.51 135.948 186.51C135.43 186.51 134.996 186.902 134.996 187.462C134.996 188.022 135.43 188.428 135.948 188.428ZM135.948 194.084C136.452 194.084 136.872 193.678 136.872 193.118C136.872 192.558 136.452 192.166 135.948 192.166C135.43 192.166 134.996 192.558 134.996 193.118C134.996 193.678 135.43 194.084 135.948 194.084ZM141.625 194.084C143.599 194.084 144.831 193.23 144.831 191.886C144.831 189.002 140.127 190.43 140.127 188.68C140.127 188.092 140.701 187.658 141.877 187.658C142.605 187.658 143.347 187.812 144.019 188.246L144.593 187.182C143.949 186.762 142.857 186.51 141.891 186.51C139.987 186.51 138.797 187.406 138.797 188.736C138.797 191.69 143.487 190.248 143.487 191.914C143.487 192.544 142.969 192.922 141.723 192.922C140.757 192.922 139.749 192.6 139.119 192.152L138.559 193.216C139.175 193.706 140.393 194.084 141.625 194.084ZM150.963 192.6C150.683 192.824 150.305 192.95 149.913 192.95C149.171 192.95 148.751 192.502 148.751 191.704V187.686H150.879V186.58H148.751V184.956H147.407V186.58H146.147V187.686H147.407V191.76C147.407 193.258 148.261 194.084 149.759 194.084C150.361 194.084 150.977 193.916 151.383 193.566L150.963 192.6ZM154.996 187.826V186.58H153.708V194H155.052V190.304C155.052 188.68 155.948 187.798 157.39 187.798C157.488 187.798 157.586 187.798 157.698 187.812V186.51C156.396 186.51 155.472 186.958 154.996 187.826ZM160.726 185.152C161.258 185.152 161.636 184.76 161.636 184.256C161.636 183.78 161.244 183.402 160.726 183.402C160.208 183.402 159.816 183.794 159.816 184.284C159.816 184.774 160.208 185.152 160.726 185.152ZM160.054 194H161.398V186.58H160.054V194ZM168.627 186.51C167.451 186.51 166.499 186.944 165.953 187.7V186.58H164.665V194H166.009V190.178C166.009 188.568 166.933 187.714 168.361 187.714C169.635 187.714 170.363 188.428 170.363 189.884V194H171.707V189.73C171.707 187.546 170.433 186.51 168.627 186.51ZM180.759 186.58V187.728C180.129 186.916 179.121 186.51 178.015 186.51C175.873 186.51 174.249 187.952 174.249 190.094C174.249 192.236 175.873 193.692 178.015 193.692C179.079 193.692 180.045 193.314 180.689 192.544V193.132C180.689 194.812 179.891 195.624 178.141 195.624C177.049 195.624 175.971 195.246 175.285 194.658L174.641 195.694C175.453 196.422 176.825 196.8 178.183 196.8C180.703 196.8 182.033 195.61 182.033 192.992V186.58H180.759ZM178.169 192.516C176.671 192.516 175.607 191.522 175.607 190.094C175.607 188.652 176.671 187.686 178.169 187.686C179.653 187.686 180.717 188.652 180.717 190.094C180.717 191.522 179.653 192.516 178.169 192.516ZM93.99 208.634C94.382 208.634 94.746 208.774 95.026 208.984L95.432 207.962C95.054 207.668 94.494 207.528 93.92 207.528C92.338 207.528 91.47 208.48 91.47 209.922V210.58H90.21V211.686H91.47V218H92.814V211.686H94.942V210.58H92.786V209.936C92.786 209.082 93.192 208.634 93.99 208.634ZM99.3186 211.826V210.58H98.0306V218H99.3746V214.304C99.3746 212.68 100.271 211.798 101.713 211.798C101.811 211.798 101.909 211.798 102.021 211.812V210.51C100.719 210.51 99.7946 210.958 99.3186 211.826ZM107.487 218.084C109.713 218.084 111.337 216.502 111.337 214.29C111.337 212.078 109.713 210.51 107.487 210.51C105.261 210.51 103.623 212.078 103.623 214.29C103.623 216.502 105.261 218.084 107.487 218.084ZM107.487 216.908C106.059 216.908 104.981 215.872 104.981 214.29C104.981 212.708 106.059 211.686 107.487 211.686C108.915 211.686 109.979 212.708 109.979 214.29C109.979 215.872 108.915 216.908 107.487 216.908ZM123.177 210.51C121.917 210.51 120.881 211.042 120.321 211.882C119.831 210.958 118.879 210.51 117.745 210.51C116.625 210.51 115.715 210.93 115.183 211.686V210.58H113.895V218H115.239V214.178C115.239 212.568 116.121 211.714 117.465 211.714C118.683 211.714 119.383 212.428 119.383 213.884V218H120.727V214.178C120.727 212.568 121.609 211.714 122.953 211.714C124.171 211.714 124.871 212.428 124.871 213.884V218H126.215V213.73C126.215 211.546 124.983 210.51 123.177 210.51ZM133.966 218.112C135.492 218.112 136.808 217.58 137.704 216.572L136.794 215.69C136.038 216.488 135.114 216.866 134.036 216.866C131.824 216.866 130.186 215.27 130.186 213.1C130.186 210.93 131.824 209.334 134.036 209.334C135.114 209.334 136.038 209.698 136.794 210.496L137.704 209.614C136.808 208.606 135.492 208.088 133.98 208.088C130.998 208.088 128.786 210.202 128.786 213.1C128.786 215.998 130.998 218.112 133.966 218.112ZM144.168 210.51C143.034 210.51 142.11 210.916 141.55 211.63V207.612H140.206V218H141.55V214.178C141.55 212.568 142.474 211.714 143.902 211.714C145.176 211.714 145.904 212.428 145.904 213.884V218H147.248V213.73C147.248 211.546 145.974 210.51 144.168 210.51ZM153.137 210.51C151.947 210.51 150.841 210.846 150.071 211.462L150.631 212.47C151.205 211.98 152.101 211.672 152.983 211.672C154.313 211.672 154.971 212.33 154.971 213.464V213.73H152.843C150.631 213.73 149.861 214.71 149.861 215.9C149.861 217.188 150.925 218.084 152.605 218.084C153.767 218.084 154.593 217.692 155.041 217.02V218H156.315V213.52C156.315 211.49 155.167 210.51 153.137 210.51ZM152.829 217.048C151.807 217.048 151.191 216.586 151.191 215.844C151.191 215.214 151.569 214.696 152.899 214.696H154.971V215.732C154.635 216.586 153.837 217.048 152.829 217.048ZM160.174 209.152C160.706 209.152 161.084 208.76 161.084 208.256C161.084 207.78 160.692 207.402 160.174 207.402C159.656 207.402 159.264 207.794 159.264 208.284C159.264 208.774 159.656 209.152 160.174 209.152ZM159.502 218H160.846V210.58H159.502V218ZM168.074 210.51C166.898 210.51 165.946 210.944 165.4 211.7V210.58H164.112V218H165.456V214.178C165.456 212.568 166.38 211.714 167.808 211.714C169.082 211.714 169.81 212.428 169.81 213.884V218H171.154V213.73C171.154 211.546 169.88 210.51 168.074 210.51ZM174.664 212.428C175.168 212.428 175.588 212.022 175.588 211.462C175.588 210.902 175.168 210.51 174.664 210.51C174.146 210.51 173.712 210.902 173.712 211.462C173.712 212.022 174.146 212.428 174.664 212.428ZM174.664 218.084C175.168 218.084 175.588 217.678 175.588 217.118C175.588 216.558 175.168 216.166 174.664 216.166C174.146 216.166 173.712 216.558 173.712 217.118C173.712 217.678 174.146 218.084 174.664 218.084ZM182.175 210.51C180.999 210.51 180.047 210.944 179.501 211.7V210.58H178.213V218H179.557V214.178C179.557 212.568 180.481 211.714 181.909 211.714C183.183 211.714 183.911 212.428 183.911 213.884V218H185.255V213.73C185.255 211.546 183.981 210.51 182.175 210.51ZM194.015 210.58V214.416C194.015 216.012 193.119 216.88 191.719 216.88C190.445 216.88 189.717 216.152 189.717 214.696V210.58H188.373V214.85C188.373 217.034 189.647 218.084 191.565 218.084C192.615 218.084 193.539 217.65 194.085 216.88V218H195.359V210.58H194.015ZM207.899 210.51C206.639 210.51 205.603 211.042 205.043 211.882C204.553 210.958 203.601 210.51 202.467 210.51C201.347 210.51 200.437 210.93 199.905 211.686V210.58H198.617V218H199.961V214.178C199.961 212.568 200.843 211.714 202.187 211.714C203.405 211.714 204.105 212.428 204.105 213.884V218H205.449V214.178C205.449 212.568 206.331 211.714 207.675 211.714C208.893 211.714 209.593 212.428 209.593 213.884V218H210.937V213.73C210.937 211.546 209.705 210.51 207.899 210.51ZM218.044 210.51C216.994 210.51 216.07 210.902 215.454 211.7V207.612H214.11V218H215.398V216.824C216 217.664 216.952 218.084 218.044 218.084C220.214 218.084 221.796 216.558 221.796 214.29C221.796 212.022 220.214 210.51 218.044 210.51ZM217.932 216.908C216.518 216.908 215.44 215.872 215.44 214.29C215.44 212.708 216.518 211.686 217.932 211.686C219.36 211.686 220.438 212.708 220.438 214.29C220.438 215.872 219.36 216.908 217.932 216.908ZM231.059 214.332C231.059 212.05 229.533 210.51 227.391 210.51C225.249 210.51 223.667 212.092 223.667 214.29C223.667 216.502 225.263 218.084 227.657 218.084C228.889 218.084 229.911 217.664 230.583 216.88L229.841 216.012C229.295 216.614 228.567 216.908 227.699 216.908C226.229 216.908 225.179 216.04 225.011 214.738H231.031C231.045 214.612 231.059 214.444 231.059 214.332ZM227.391 211.644C228.693 211.644 229.631 212.526 229.771 213.772H225.011C225.151 212.512 226.103 211.644 227.391 211.644ZM234.914 211.826V210.58H233.626V218H234.97V214.304C234.97 212.68 235.866 211.798 237.308 211.798C237.406 211.798 237.504 211.798 237.616 211.812V210.51C236.314 210.51 235.39 210.958 234.914 211.826ZM240.267 216.166C239.735 216.166 239.329 216.558 239.329 217.118C239.329 217.538 239.567 217.86 239.917 217.986L239.399 220.072H240.281L240.939 218.126C241.121 217.608 241.177 217.398 241.177 217.118C241.177 216.572 240.799 216.166 240.267 216.166ZM95.026 240.6C94.746 240.824 94.368 240.95 93.976 240.95C93.234 240.95 92.814 240.502 92.814 239.704V235.686H94.942V234.58H92.814V232.956H91.47V234.58H90.21V235.686H91.47V239.76C91.47 241.258 92.324 242.084 93.822 242.084C94.424 242.084 95.04 241.916 95.446 241.566L95.026 240.6ZM100.703 242.084C102.929 242.084 104.553 240.502 104.553 238.29C104.553 236.078 102.929 234.51 100.703 234.51C98.4768 234.51 96.8388 236.078 96.8388 238.29C96.8388 240.502 98.4768 242.084 100.703 242.084ZM100.703 240.908C99.2748 240.908 98.1968 239.872 98.1968 238.29C98.1968 236.708 99.2748 235.686 100.703 235.686C102.131 235.686 103.195 236.708 103.195 238.29C103.195 239.872 102.131 240.908 100.703 240.908ZM111.689 242.112C113.215 242.112 114.532 241.58 115.428 240.572L114.517 239.69C113.762 240.488 112.837 240.866 111.759 240.866C109.547 240.866 107.909 239.27 107.909 237.1C107.909 234.93 109.547 233.334 111.759 233.334C112.837 233.334 113.762 233.698 114.517 234.496L115.428 233.614C114.532 232.606 113.215 232.088 111.704 232.088C108.721 232.088 106.509 234.202 106.509 237.1C106.509 239.998 108.721 242.112 111.689 242.112ZM121.891 234.51C120.757 234.51 119.833 234.916 119.273 235.63V231.612H117.929V242H119.273V238.178C119.273 236.568 120.197 235.714 121.625 235.714C122.899 235.714 123.627 236.428 123.627 237.884V242H124.971V237.73C124.971 235.546 123.697 234.51 121.891 234.51ZM130.86 234.51C129.67 234.51 128.564 234.846 127.794 235.462L128.354 236.47C128.928 235.98 129.824 235.672 130.706 235.672C132.036 235.672 132.694 236.33 132.694 237.464V237.73H130.566C128.354 237.73 127.584 238.71 127.584 239.9C127.584 241.188 128.648 242.084 130.328 242.084C131.49 242.084 132.316 241.692 132.764 241.02V242H134.038V237.52C134.038 235.49 132.89 234.51 130.86 234.51ZM130.552 241.048C129.53 241.048 128.914 240.586 128.914 239.844C128.914 239.214 129.292 238.696 130.622 238.696H132.694V239.732C132.358 240.586 131.56 241.048 130.552 241.048ZM137.897 233.152C138.429 233.152 138.807 232.76 138.807 232.256C138.807 231.78 138.415 231.402 137.897 231.402C137.379 231.402 136.987 231.794 136.987 232.284C136.987 232.774 137.379 233.152 137.897 233.152ZM137.225 242H138.569V234.58H137.225V242ZM145.797 234.51C144.621 234.51 143.669 234.944 143.123 235.7V234.58H141.835V242H143.179V238.178C143.179 236.568 144.103 235.714 145.531 235.714C146.805 235.714 147.533 236.428 147.533 237.884V242H148.877V237.73C148.877 235.546 147.603 234.51 145.797 234.51ZM152.387 236.428C152.891 236.428 153.311 236.022 153.311 235.462C153.311 234.902 152.891 234.51 152.387 234.51C151.869 234.51 151.435 234.902 151.435 235.462C151.435 236.022 151.869 236.428 152.387 236.428ZM152.387 242.084C152.891 242.084 153.311 241.678 153.311 241.118C153.311 240.558 152.891 240.166 152.387 240.166C151.869 240.166 151.435 240.558 151.435 241.118C151.435 241.678 151.869 242.084 152.387 242.084ZM159.898 234.51C158.722 234.51 157.77 234.944 157.224 235.7V234.58H155.936V242H157.28V238.178C157.28 236.568 158.204 235.714 159.632 235.714C160.906 235.714 161.634 236.428 161.634 237.884V242H162.978V237.73C162.978 235.546 161.704 234.51 159.898 234.51ZM171.738 234.58V238.416C171.738 240.012 170.842 240.88 169.442 240.88C168.168 240.88 167.44 240.152 167.44 238.696V234.58H166.096V238.85C166.096 241.034 167.37 242.084 169.288 242.084C170.338 242.084 171.262 241.65 171.808 240.88V242H173.082V234.58H171.738ZM185.622 234.51C184.362 234.51 183.326 235.042 182.766 235.882C182.276 234.958 181.324 234.51 180.19 234.51C179.07 234.51 178.16 234.93 177.628 235.686V234.58H176.34V242H177.684V238.178C177.684 236.568 178.566 235.714 179.91 235.714C181.128 235.714 181.828 236.428 181.828 237.884V242H183.172V238.178C183.172 236.568 184.054 235.714 185.398 235.714C186.616 235.714 187.316 236.428 187.316 237.884V242H188.66V237.73C188.66 235.546 187.428 234.51 185.622 234.51ZM195.767 234.51C194.717 234.51 193.793 234.902 193.177 235.7V231.612H191.833V242H193.121V240.824C193.723 241.664 194.675 242.084 195.767 242.084C197.937 242.084 199.519 240.558 199.519 238.29C199.519 236.022 197.937 234.51 195.767 234.51ZM195.655 240.908C194.241 240.908 193.163 239.872 193.163 238.29C193.163 236.708 194.241 235.686 195.655 235.686C197.083 235.686 198.161 236.708 198.161 238.29C198.161 239.872 197.083 240.908 195.655 240.908ZM208.782 238.332C208.782 236.05 207.256 234.51 205.114 234.51C202.972 234.51 201.39 236.092 201.39 238.29C201.39 240.502 202.986 242.084 205.38 242.084C206.612 242.084 207.634 241.664 208.306 240.88L207.564 240.012C207.018 240.614 206.29 240.908 205.422 240.908C203.952 240.908 202.902 240.04 202.734 238.738H208.754C208.768 238.612 208.782 238.444 208.782 238.332ZM205.114 235.644C206.416 235.644 207.354 236.526 207.494 237.772H202.734C202.874 236.512 203.826 235.644 205.114 235.644ZM212.637 235.826V234.58H211.349V242H212.693V238.304C212.693 236.68 213.589 235.798 215.031 235.798C215.129 235.798 215.227 235.798 215.339 235.812V234.51C214.037 234.51 213.113 234.958 212.637 235.826ZM217.99 240.166C217.458 240.166 217.052 240.558 217.052 241.118C217.052 241.538 217.29 241.86 217.64 241.986L217.122 244.072H218.004L218.662 242.126C218.844 241.608 218.9 241.398 218.9 241.118C218.9 240.572 218.522 240.166 217.99 240.166ZM92.562 259.826V258.58H91.274V266H92.618V262.304C92.618 260.68 93.514 259.798 94.956 259.798C95.054 259.798 95.152 259.798 95.264 259.812V258.51C93.962 258.51 93.038 258.958 92.562 259.826ZM104.258 262.332C104.258 260.05 102.732 258.51 100.59 258.51C98.4481 258.51 96.8661 260.092 96.8661 262.29C96.8661 264.502 98.4621 266.084 100.856 266.084C102.088 266.084 103.11 265.664 103.782 264.88L103.04 264.012C102.494 264.614 101.766 264.908 100.898 264.908C99.4281 264.908 98.3781 264.04 98.2101 262.738H104.23C104.244 262.612 104.258 262.444 104.258 262.332ZM100.59 259.644C101.892 259.644 102.83 260.526 102.97 261.772H98.2101C98.3501 260.512 99.3021 259.644 100.59 259.644ZM110.058 266.084C111.388 266.084 112.494 265.524 113.082 264.488L112.06 263.844C111.584 264.572 110.856 264.908 110.044 264.908C108.588 264.908 107.496 263.9 107.496 262.29C107.496 260.708 108.588 259.686 110.044 259.686C110.856 259.686 111.584 260.022 112.06 260.75L113.082 260.092C112.494 259.056 111.388 258.51 110.058 258.51C107.776 258.51 106.138 260.078 106.138 262.29C106.138 264.502 107.776 266.084 110.058 266.084ZM122.119 262.332C122.119 260.05 120.593 258.51 118.451 258.51C116.309 258.51 114.727 260.092 114.727 262.29C114.727 264.502 116.323 266.084 118.717 266.084C119.949 266.084 120.971 265.664 121.643 264.88L120.901 264.012C120.355 264.614 119.627 264.908 118.759 264.908C117.289 264.908 116.239 264.04 116.071 262.738H122.091C122.105 262.612 122.119 262.444 122.119 262.332ZM118.451 259.644C119.753 259.644 120.691 260.526 120.831 261.772H116.071C116.211 260.512 117.163 259.644 118.451 259.644ZM125.357 257.152C125.889 257.152 126.267 256.76 126.267 256.256C126.267 255.78 125.875 255.402 125.357 255.402C124.839 255.402 124.447 255.794 124.447 256.284C124.447 256.774 124.839 257.152 125.357 257.152ZM124.685 266H126.029V258.58H124.685V266ZM134.545 258.58L131.941 264.53L129.393 258.58H127.993L131.241 266H132.613L135.861 258.58H134.545ZM144.317 262.332C144.317 260.05 142.791 258.51 140.649 258.51C138.507 258.51 136.925 260.092 136.925 262.29C136.925 264.502 138.521 266.084 140.915 266.084C142.147 266.084 143.169 265.664 143.841 264.88L143.099 264.012C142.553 264.614 141.825 264.908 140.957 264.908C139.487 264.908 138.437 264.04 138.269 262.738H144.289C144.303 262.612 144.317 262.444 144.317 262.332ZM140.649 259.644C141.951 259.644 142.889 260.526 143.029 261.772H138.269C138.409 260.512 139.361 259.644 140.649 259.644ZM148.171 259.826V258.58H146.883V266H148.227V262.304C148.227 260.68 149.123 259.798 150.565 259.798C150.663 259.798 150.761 259.798 150.873 259.812V258.51C149.571 258.51 148.647 258.958 148.171 259.826ZM153.688 260.428C154.192 260.428 154.612 260.022 154.612 259.462C154.612 258.902 154.192 258.51 153.688 258.51C153.17 258.51 152.736 258.902 152.736 259.462C152.736 260.022 153.17 260.428 153.688 260.428ZM153.688 266.084C154.192 266.084 154.612 265.678 154.612 265.118C154.612 264.558 154.192 264.166 153.688 264.166C153.17 264.166 152.736 264.558 152.736 265.118C152.736 265.678 153.17 266.084 153.688 266.084ZM159.366 266.084C161.34 266.084 162.572 265.23 162.572 263.886C162.572 261.002 157.868 262.43 157.868 260.68C157.868 260.092 158.442 259.658 159.618 259.658C160.346 259.658 161.088 259.812 161.76 260.246L162.334 259.182C161.69 258.762 160.598 258.51 159.632 258.51C157.728 258.51 156.538 259.406 156.538 260.736C156.538 263.69 161.228 262.248 161.228 263.914C161.228 264.544 160.71 264.922 159.464 264.922C158.498 264.922 157.49 264.6 156.86 264.152L156.3 265.216C156.916 265.706 158.134 266.084 159.366 266.084ZM168.704 264.6C168.424 264.824 168.046 264.95 167.654 264.95C166.912 264.95 166.492 264.502 166.492 263.704V259.686H168.62V258.58H166.492V256.956H165.148V258.58H163.888V259.686H165.148V263.76C165.148 265.258 166.002 266.084 167.5 266.084C168.102 266.084 168.718 265.916 169.124 265.566L168.704 264.6ZM172.737 259.826V258.58H171.449V266H172.793V262.304C172.793 260.68 173.689 259.798 175.131 259.798C175.229 259.798 175.327 259.798 175.439 259.812V258.51C174.137 258.51 173.213 258.958 172.737 259.826ZM178.467 257.152C178.999 257.152 179.377 256.76 179.377 256.256C179.377 255.78 178.985 255.402 178.467 255.402C177.949 255.402 177.557 255.794 177.557 256.284C177.557 256.774 177.949 257.152 178.467 257.152ZM177.795 266H179.139V258.58H177.795V266ZM186.367 258.51C185.191 258.51 184.239 258.944 183.693 259.7V258.58H182.405V266H183.749V262.178C183.749 260.568 184.673 259.714 186.101 259.714C187.375 259.714 188.103 260.428 188.103 261.884V266H189.447V261.73C189.447 259.546 188.173 258.51 186.367 258.51ZM198.5 258.58V259.728C197.87 258.916 196.862 258.51 195.756 258.51C193.614 258.51 191.99 259.952 191.99 262.094C191.99 264.236 193.614 265.692 195.756 265.692C196.82 265.692 197.786 265.314 198.43 264.544V265.132C198.43 266.812 197.632 267.624 195.882 267.624C194.79 267.624 193.712 267.246 193.026 266.658L192.382 267.694C193.194 268.422 194.566 268.8 195.924 268.8C198.444 268.8 199.774 267.61 199.774 264.992V258.58H198.5ZM195.91 264.516C194.412 264.516 193.348 263.522 193.348 262.094C193.348 260.652 194.412 259.686 195.91 259.686C197.394 259.686 198.458 260.652 198.458 262.094C198.458 263.522 197.394 264.516 195.91 264.516ZM203.378 264.166C202.846 264.166 202.44 264.558 202.44 265.118C202.44 265.538 202.678 265.86 203.028 265.986L202.51 268.072H203.392L204.05 266.126C204.232 265.608 204.288 265.398 204.288 265.118C204.288 264.572 203.91 264.166 203.378 264.166ZM93.976 282.51C92.786 282.51 91.68 282.846 90.91 283.462L91.47 284.47C92.044 283.98 92.94 283.672 93.822 283.672C95.152 283.672 95.81 284.33 95.81 285.464V285.73H93.682C91.47 285.73 90.7 286.71 90.7 287.9C90.7 289.188 91.764 290.084 93.444 290.084C94.606 290.084 95.432 289.692 95.88 289.02V290H97.154V285.52C97.154 283.49 96.006 282.51 93.976 282.51ZM93.668 289.048C92.646 289.048 92.03 288.586 92.03 287.844C92.03 287.214 92.408 286.696 93.738 286.696H95.81V287.732C95.474 288.586 94.676 289.048 93.668 289.048ZM109.623 282.51C108.363 282.51 107.327 283.042 106.767 283.882C106.277 282.958 105.325 282.51 104.191 282.51C103.071 282.51 102.161 282.93 101.629 283.686V282.58H100.341V290H101.685V286.178C101.685 284.568 102.567 283.714 103.911 283.714C105.129 283.714 105.829 284.428 105.829 285.884V290H107.173V286.178C107.173 284.568 108.055 283.714 109.399 283.714C110.617 283.714 111.317 284.428 111.317 285.884V290H112.661V285.73C112.661 283.546 111.429 282.51 109.623 282.51ZM119.053 290.084C121.279 290.084 122.903 288.502 122.903 286.29C122.903 284.078 121.279 282.51 119.053 282.51C116.827 282.51 115.189 284.078 115.189 286.29C115.189 288.502 116.827 290.084 119.053 290.084ZM119.053 288.908C117.625 288.908 116.547 287.872 116.547 286.29C116.547 284.708 117.625 283.686 119.053 283.686C120.481 283.686 121.545 284.708 121.545 286.29C121.545 287.872 120.481 288.908 119.053 288.908ZM131.034 282.58V286.416C131.034 288.012 130.138 288.88 128.738 288.88C127.464 288.88 126.736 288.152 126.736 286.696V282.58H125.392V286.85C125.392 289.034 126.666 290.084 128.584 290.084C129.634 290.084 130.558 289.65 131.104 288.88V290H132.378V282.58H131.034ZM139.598 282.51C138.422 282.51 137.47 282.944 136.924 283.7V282.58H135.636V290H136.98V286.178C136.98 284.568 137.904 283.714 139.332 283.714C140.606 283.714 141.334 284.428 141.334 285.884V290H142.678V285.73C142.678 283.546 141.404 282.51 139.598 282.51ZM149.618 288.6C149.338 288.824 148.96 288.95 148.568 288.95C147.826 288.95 147.406 288.502 147.406 287.704V283.686H149.534V282.58H147.406V280.956H146.062V282.58H144.802V283.686H146.062V287.76C146.062 289.258 146.916 290.084 148.414 290.084C149.016 290.084 149.632 289.916 150.038 289.566L149.618 288.6ZM152.685 284.428C153.189 284.428 153.609 284.022 153.609 283.462C153.609 282.902 153.189 282.51 152.685 282.51C152.167 282.51 151.733 282.902 151.733 283.462C151.733 284.022 152.167 284.428 152.685 284.428ZM152.685 290.084C153.189 290.084 153.609 289.678 153.609 289.118C153.609 288.558 153.189 288.166 152.685 288.166C152.167 288.166 151.733 288.558 151.733 289.118C151.733 289.678 152.167 290.084 152.685 290.084ZM163.025 284.918C163.795 284.54 164.341 283.798 164.341 282.734C164.341 281.152 163.081 280.2 160.827 280.2H156.431V290H161.107C163.585 290 164.859 289.034 164.859 287.354C164.859 286.052 164.131 285.226 163.025 284.918ZM160.701 281.334C162.129 281.334 162.941 281.866 162.941 282.902C162.941 283.938 162.129 284.47 160.701 284.47H157.831V281.334H160.701ZM161.051 288.866H157.831V285.604H161.051C162.605 285.604 163.445 286.108 163.445 287.242C163.445 288.376 162.605 288.866 161.051 288.866ZM168.202 281.152C168.734 281.152 169.112 280.76 169.112 280.256C169.112 279.78 168.72 279.402 168.202 279.402C167.684 279.402 167.292 279.794 167.292 280.284C167.292 280.774 167.684 281.152 168.202 281.152ZM167.53 290H168.874V282.58H167.53V290ZM177.964 282.58V283.728C177.334 282.916 176.326 282.51 175.22 282.51C173.078 282.51 171.454 283.952 171.454 286.094C171.454 288.236 173.078 289.692 175.22 289.692C176.284 289.692 177.25 289.314 177.894 288.544V289.132C177.894 290.812 177.096 291.624 175.346 291.624C174.254 291.624 173.176 291.246 172.49 290.658L171.846 291.694C172.658 292.422 174.03 292.8 175.388 292.8C177.908 292.8 179.238 291.61 179.238 288.992V282.58H177.964ZM175.374 288.516C173.876 288.516 172.812 287.522 172.812 286.094C172.812 284.652 173.876 283.686 175.374 283.686C176.858 283.686 177.922 284.652 177.922 286.094C177.922 287.522 176.858 288.516 175.374 288.516ZM182.702 290H184.102V280.2H182.702V290ZM191.502 282.51C190.326 282.51 189.374 282.944 188.828 283.7V282.58H187.54V290H188.884V286.178C188.884 284.568 189.808 283.714 191.236 283.714C192.51 283.714 193.238 284.428 193.238 285.884V290H194.582V285.73C194.582 283.546 193.308 282.51 191.502 282.51ZM201.522 288.6C201.242 288.824 200.864 288.95 200.472 288.95C199.73 288.95 199.31 288.502 199.31 287.704V283.686H201.438V282.58H199.31V280.956H197.966V282.58H196.706V283.686H197.966V287.76C197.966 289.258 198.82 290.084 200.318 290.084C200.92 290.084 201.536 289.916 201.942 289.566L201.522 288.6ZM138.224 309.604C137.846 309.604 137.608 309.394 137.608 308.904V305.684C137.608 304.326 136.88 303.612 135.48 303.612H134.864V304.718H135.2C135.928 304.718 136.264 305.11 136.264 305.81V308.876C136.264 309.674 136.502 309.996 137.02 310.164C136.502 310.332 136.264 310.654 136.264 311.452V314.518C136.264 315.218 135.928 315.61 135.2 315.61H134.864V316.716H135.48C136.88 316.716 137.608 316.002 137.608 314.644V311.424C137.608 310.934 137.846 310.724 138.224 310.724H138.7V309.604H138.224Z" fill="#1C3144"/>
<path d="M0 16C0 7.16344 7.16344 0 16 0H50V349H16C7.16344 349 0 341.837 0 333V16Z" fill="#35CE8D"/>
<path opacity="0.75" d="M22.946 40.2V41.726H25.018V50H26.838V40.2H22.946ZM24.5198 72.46L27.1378 69.968C28.4958 68.694 28.7618 67.826 28.7618 66.874C28.7618 65.138 27.3898 64.06 25.2618 64.06C23.6518 64.06 22.2938 64.662 21.5378 65.684L22.8118 66.664C23.3578 65.964 24.1558 65.642 25.1078 65.642C26.3118 65.642 26.9278 66.16 26.9278 67.056C26.9278 67.602 26.7598 68.176 25.8078 69.086L21.9158 72.782V74H29.1398V72.46H24.5198ZM26.2138 92.246L28.5938 89.418V88.2H21.9158V89.726H26.3678L24.1418 92.372V93.618H25.0378C26.5218 93.618 27.1658 94.192 27.1658 95.074C27.1658 95.984 26.3958 96.558 25.0938 96.558C23.9878 96.558 22.9238 96.18 22.2238 95.592L21.4398 97.006C22.3498 97.72 23.7358 98.14 25.1218 98.14C27.7538 98.14 28.9998 96.712 28.9998 95.06C28.9998 93.59 28.0618 92.484 26.2138 92.246ZM30.101 118.234H28.365V116.26H26.657V118.234H23.451L28.001 112.2H26.055L21.225 118.514V119.774H26.601V122H28.365V119.774H30.101V118.234ZM25.0941 139.994H24.1561L24.3661 137.726H28.5801V136.2H22.8261L22.3221 141.534H24.6881C26.7181 141.534 27.3201 142.122 27.3201 143.06C27.3201 143.984 26.5501 144.558 25.2481 144.558C24.1421 144.558 23.0781 144.18 22.3641 143.592L21.5941 145.006C22.4901 145.72 23.8901 146.14 25.2761 146.14C27.9081 146.14 29.1541 144.712 29.1541 142.99C29.1541 141.254 27.9921 139.994 25.0941 139.994ZM26.1793 163.952C25.0873 163.952 24.1493 164.288 23.5613 164.974V164.96C23.5613 162.734 24.7233 161.586 26.5713 161.586C27.2573 161.586 27.9013 161.712 28.4333 162.062L29.1053 160.69C28.4473 160.27 27.5093 160.06 26.5293 160.06C23.6873 160.06 21.7273 161.908 21.7273 165.268C21.7273 168.418 23.2953 170.14 25.9693 170.14C27.9713 170.14 29.5533 168.908 29.5533 166.962C29.5533 165.128 28.1113 163.952 26.1793 163.952ZM25.8713 168.712C24.5693 168.712 23.8413 167.984 23.8413 167.06C23.8413 166.094 24.6533 165.38 25.8293 165.38C27.0193 165.38 27.7893 166.024 27.7893 167.046C27.7893 168.068 27.0053 168.712 25.8713 168.712ZM21.6332 184.2V187.406H23.3272V185.74H27.1772L23.4952 194H25.4412L29.2492 185.418V184.2H21.6332ZM27.9056 212.848C28.7036 212.414 29.1516 211.714 29.1516 210.79C29.1516 209.11 27.6676 208.06 25.4836 208.06C23.3136 208.06 21.8436 209.11 21.8436 210.79C21.8436 211.714 22.2776 212.414 23.0616 212.848C22.0536 213.31 21.4936 214.108 21.4936 215.186C21.4936 217.006 23.0476 218.14 25.4836 218.14C27.9196 218.14 29.5016 217.006 29.5016 215.186C29.5016 214.108 28.9276 213.31 27.9056 212.848ZM25.4836 209.488C26.6036 209.488 27.3596 209.992 27.3596 210.874C27.3596 211.714 26.6456 212.246 25.4836 212.246C24.3356 212.246 23.6356 211.714 23.6356 210.874C23.6356 209.992 24.3636 209.488 25.4836 209.488ZM25.4836 216.712C24.1396 216.712 23.3276 216.124 23.3276 215.13C23.3276 214.164 24.1396 213.562 25.4836 213.562C26.8276 213.562 27.6676 214.164 27.6676 215.13C27.6676 216.124 26.8276 216.712 25.4836 216.712ZM25.0313 232.06C23.0293 232.06 21.4473 233.292 21.4473 235.238C21.4473 237.072 22.8893 238.248 24.8213 238.248C25.9133 238.248 26.8513 237.912 27.4393 237.226V237.24C27.4393 239.466 26.2773 240.614 24.4293 240.614C23.7433 240.614 23.0993 240.488 22.5673 240.138L21.8953 241.51C22.5533 241.93 23.4913 242.14 24.4713 242.14C27.3133 242.14 29.2733 240.292 29.2733 236.932C29.2733 233.782 27.7053 232.06 25.0313 232.06ZM25.1713 236.82C23.9813 236.82 23.2113 236.176 23.2113 235.154C23.2113 234.132 23.9953 233.488 25.1293 233.488C26.4313 233.488 27.1593 234.216 27.1593 235.14C27.1593 236.106 26.3473 236.82 25.1713 236.82ZM18.236 256.2V257.726H20.308V266H22.128V256.2H18.236ZM28.1601 266.14C30.4981 266.14 32.2621 264.32 32.2621 261.1C32.2621 257.88 30.4981 256.06 28.1601 256.06C25.8361 256.06 24.0721 257.88 24.0721 261.1C24.0721 264.32 25.8361 266.14 28.1601 266.14ZM28.1601 264.558C26.8301 264.558 25.9061 263.466 25.9061 261.1C25.9061 258.734 26.8301 257.642 28.1601 257.642C29.5041 257.642 30.4281 258.734 30.4281 261.1C30.4281 263.466 29.5041 264.558 28.1601 264.558ZM20.28 280.2V281.726H22.352V290H24.172V280.2H20.28ZM25.612 280.2V281.726H27.684V290H29.504V280.2H25.612ZM18.8718 304.2V305.726H20.9438V314H22.7638V304.2H18.8718ZM27.1858 312.46L29.8038 309.968C31.1618 308.694 31.4278 307.826 31.4278 306.874C31.4278 305.138 30.0558 304.06 27.9278 304.06C26.3178 304.06 24.9598 304.662 24.2038 305.684L25.4778 306.664C26.0238 305.964 26.8218 305.642 27.7738 305.642C28.9778 305.642 29.5938 306.16 29.5938 307.056C29.5938 307.602 29.4258 308.176 28.4738 309.086L24.5818 312.782V314H31.8058V312.46H27.1858Z" fill="white"/>
</svg>
