<svg width="80" height="80" viewBox="0 0 80 80" fill="none" xmlns="http://www.w3.org/2000/svg">
<mask id="mask0_16_12939" style="mask-type:luminance" maskUnits="userSpaceOnUse" x="0" y="0" width="80" height="80">
<path d="M0 7.62939e-06H80V80H0V7.62939e-06Z" fill="white"/>
</mask>
<g mask="url(#mask0_16_12939)">
<path d="M40.1179 71.8911C26.6402 67.4888 17.3691 54.8289 17.3691 40.5277V21.7414C26.1698 20.4974 33.784 16.8674 40.1179 10.8969C46.4518 16.8674 54.0659 20.4974 62.8666 21.7414V40.5277C62.8666 54.8289 53.5957 67.4886 40.1179 71.8911Z" fill="#9AE6C6"/>
<path d="M34.571 41.9487L37.8992 45.2769L45.6646 37.5112" stroke="#1C3144" stroke-width="2" stroke-miterlimit="10" stroke-linecap="square"/>
<path d="M55.8067 41.394C55.8067 50.0587 48.7826 57.0828 40.1179 57.0828C31.4533 57.0828 24.4292 50.0587 24.4292 41.394C24.4292 32.7293 31.4533 25.7053 40.1179 25.7053C48.7826 25.7053 55.8067 32.7293 55.8067 41.394Z" stroke="#1C3144" stroke-width="2" stroke-miterlimit="10" stroke-linecap="round"/>
<path d="M40.118 78.4375C57.2458 73.8084 69.1422 58.2698 69.1422 40.5277V15.9445C55.8483 15.7173 46.7739 10.1658 40.118 1.5625C33.462 10.1658 24.3877 15.7173 11.0938 15.9445V40.5277C11.0938 58.2698 22.9902 73.8084 40.118 78.4375Z" stroke="#1C3144" stroke-width="2" stroke-miterlimit="10" stroke-linecap="round"/>
</g>
</svg>
