<svg width="80" height="80" viewBox="0 0 80 80" fill="none" xmlns="http://www.w3.org/2000/svg">
<path d="M56.8362 27.2806L55.9752 26.7719L54.9578 28.4937L55.8187 29.0025L56.8362 27.2806ZM75.0737 39.2187L75.5824 40.0797L77.0394 39.2187L75.5824 38.3578L75.0737 39.2187ZM40.0001 59.944L39.4914 60.805L40.0001 61.1056L40.5088 60.805L40.0001 59.944ZM4.92651 39.2187L4.41779 38.3578L2.96083 39.2187L4.41778 40.0797L4.92651 39.2187ZM55.8187 29.0025L74.565 40.0797L75.5824 38.3578L56.8362 27.2806L55.8187 29.0025ZM74.565 38.3578L39.4914 59.0831L40.5088 60.805L75.5824 40.0797L74.565 38.3578ZM40.5088 59.0831L5.43524 38.3578L4.41778 40.0797L39.4914 60.805L40.5088 59.0831ZM5.43524 40.0797L23.6726 29.3031L22.6551 27.5812L4.41779 38.3578L5.43524 40.0797Z" fill="#1C3144"/>
<path d="M60.7168 48.3399L59.8489 47.843L58.8552 49.5787L59.723 50.0755L60.7168 48.3399ZM75.0737 57.7121L75.5824 58.5731L77.0625 57.6985L75.5706 56.8443L75.0737 57.7121ZM40.0001 78.4374L39.4914 79.2984L40.0001 79.599L40.5088 79.2984L40.0001 78.4374ZM4.92651 57.7121L4.41779 56.8512L2.96082 57.7121L4.41778 58.5731L4.92651 57.7121ZM59.723 50.0755L74.5768 58.58L75.5706 56.8443L60.7168 48.3399L59.723 50.0755ZM74.565 56.8512L39.4914 77.5765L40.5088 79.2984L75.5824 58.5731L74.565 56.8512ZM40.5088 77.5765L5.43524 56.8512L4.41778 58.5731L39.4914 79.2984L40.5088 77.5765ZM5.43524 58.5731L20.801 49.4934L19.7836 47.7715L4.41779 56.8512L5.43524 58.5731Z" fill="#1C3144"/>
<path fill-rule="evenodd" clip-rule="evenodd" d="M4.92651 20.7253L40.0001 0L75.0737 20.7253L40.0001 41.4505L4.92651 20.7253Z" fill="#9AE6C6"/>
<path d="M42.0711 17.1383L37.9292 24.3124" stroke="#1C3144" stroke-width="2" stroke-miterlimit="22.9256" stroke-linecap="square"/>
<path d="M31.8297 24.3124L28.2427 20.7253L31.8297 17.1383" stroke="#1C3144" stroke-width="2" stroke-miterlimit="22.9256" stroke-linecap="square"/>
<path d="M48.1707 24.3124L51.7578 20.7253L48.1707 17.1383" stroke="#1C3144" stroke-width="2" stroke-miterlimit="22.9256" stroke-linecap="square"/>
</svg>
