<svg width="30" height="30" viewBox="0 0 30 30" fill="none" xmlns="http://www.w3.org/2000/svg">
<g clip-path="url(#clip0_86_13041)">
<path d="M25.3963 5.46243C23.4842 4.58511 21.4338 3.9387 19.2899 3.56845C19.2509 3.5613 19.2119 3.57917 19.1918 3.61485C18.9281 4.0839 18.636 4.69573 18.4314 5.17667C16.1256 4.83144 13.8315 4.83144 11.573 5.17667C11.3683 4.68507 11.0656 4.0839 10.8007 3.61485C10.7806 3.58034 10.7416 3.56247 10.7026 3.56845C8.55995 3.93747 6.50952 4.58388 4.5962 5.46243C4.57961 5.46958 4.56543 5.48148 4.556 5.49694C0.666782 11.3074 -0.398686 16.975 0.12397 22.5724C0.126314 22.5998 0.141724 22.6259 0.162993 22.6426C2.72899 24.527 5.21465 25.671 7.65409 26.4293C7.69311 26.4412 7.73448 26.427 7.75932 26.3948C8.33635 25.6068 8.85075 24.7759 9.29178 23.9021C9.3178 23.8509 9.29295 23.7902 9.23975 23.7699C8.42383 23.4604 7.64694 23.083 6.89958 22.6545C6.84045 22.62 6.83571 22.5355 6.89014 22.495C7.04741 22.3772 7.20473 22.2545 7.35491 22.1307C7.3821 22.1081 7.41995 22.1034 7.45188 22.1176C12.3616 24.3592 17.6769 24.3592 22.5286 22.1176C22.5606 22.1021 22.5984 22.1069 22.6268 22.1295C22.777 22.2533 22.9343 22.3771 23.0927 22.4949C23.1471 22.5354 23.1435 22.62 23.0845 22.6545C22.3371 23.0914 21.5602 23.4604 20.7431 23.7687C20.6899 23.7889 20.6662 23.8509 20.6923 23.902C21.1428 24.7746 21.6572 25.6055 22.2236 26.3936C22.2473 26.4269 22.2898 26.4412 22.3288 26.4293C24.7801 25.671 27.2658 24.527 29.8318 22.6425C29.8543 22.6259 29.8684 22.6009 29.8708 22.5735C30.4963 16.1024 28.8231 10.4812 25.4352 5.49806C25.427 5.48148 25.4129 5.46958 25.3963 5.46243ZM10.0251 19.1642C8.54694 19.1642 7.32895 17.8071 7.32895 16.1405C7.32895 14.4739 8.52327 13.1168 10.0251 13.1168C11.5386 13.1168 12.7448 14.4858 12.7212 16.1405C12.7212 17.8071 11.5268 19.1642 10.0251 19.1642ZM19.9935 19.1642C18.5154 19.1642 17.2974 17.8071 17.2974 16.1405C17.2974 14.4739 18.4917 13.1168 19.9935 13.1168C21.5071 13.1168 22.7132 14.4858 22.6896 16.1405C22.6896 17.8071 21.5071 19.1642 19.9935 19.1642Z" fill="#FFC914"/>
</g>
<defs>
<clipPath id="clip0_86_13041">
<rect width="30" height="30" fill="white"/>
</clipPath>
</defs>
</svg>
