<svg width="251" height="40" viewBox="0 0 251 40" fill="none" xmlns="http://www.w3.org/2000/svg">
<g clip-path="url(#clip0_59_13055)">
<path fill-rule="evenodd" clip-rule="evenodd" d="M35.6055 40.0001L31.6481 36.0458L35.6055 32.0915L31.6595 28.1487L23.756 36.0458H23.7332L15.8232 28.1421L11.8724 32.0915L15.8298 36.0458L11.8724 40.0001L3.95752 32.0915L11.8651 24.1872L9.89357 22.2172C6.62239 18.9487 6.62239 13.6344 9.89357 10.3544L11.8723 8.37723L9.8936 6.4001C8.80702 5.31438 7.03418 5.31438 5.93616 6.4001L3.95744 8.37724L0 4.42296L1.97872 2.44581C5.2499 -0.822758 10.5684 -0.822758 13.851 2.44581L15.8297 4.42294L17.8084 2.44581C21.0796 -0.822758 26.3981 -0.822758 29.6808 2.44581L31.6485 4.41196L33.6154 2.44581C36.8981 -0.822758 42.2166 -0.822758 45.4878 2.44581L47.4665 4.42296L43.509 8.37724L41.5303 6.4001C40.4323 5.31438 38.6595 5.31438 37.5729 6.4001L35.606 8.36631L37.5956 10.3544C40.8668 13.623 40.8668 18.9372 37.5956 22.2172L35.6169 24.1944L43.5204 32.0915L35.6055 40.0001ZM27.6861 8.37273L25.7119 6.4001C24.6253 5.31438 22.8525 5.31438 21.7544 6.4001L19.7815 8.37151L23.7351 12.322L27.6861 8.37273ZM15.824 12.3258L13.8396 14.3087C12.753 15.3944 12.753 17.1658 13.8396 18.263L15.8161 20.2379L19.7785 16.2771L15.824 12.3258ZM19.774 24.1927L23.7332 28.1487L27.6963 24.1887L23.7363 20.2318L19.774 24.1927ZM31.6538 20.2344L33.6268 18.263C34.7133 17.1772 34.7133 15.4058 33.6268 14.3087L31.6437 12.3272L27.6929 16.2766L31.6538 20.2344Z" fill="#35CE8D"/>
<path d="M72.675 24.8229V28.5714H58.9041V11.4286H72.675V15.1772H63.7079V18.0686H71.3254V21.6914H63.7079V24.8229H72.675Z" fill="#1C3144"/>
<path d="M90.8609 28.5714L90.8151 19.4857L86.4002 26.88H84.2384L79.8464 19.7257V28.5714H75.3628V11.4286H79.3545L85.3822 21.3257L91.2612 11.4286H95.2529L95.2987 28.5714H90.838H90.8609Z" fill="#1C3144"/>
<path d="M113.713 28.5714L113.668 19.4857L109.253 26.88H107.091L102.71 19.7257V28.5714H98.2268V11.4286H102.219L108.246 21.3257L114.125 11.4286H118.117L118.163 28.5714H113.702H113.713Z" fill="#1C3144"/>
<path d="M134.839 24.8229V28.5714H121.068V11.4286H134.839V15.1772H125.872V18.0686H133.489V21.6914H125.872V24.8229H134.839Z" fill="#1C3144"/>
<path d="M141.759 15.2686H136.486V11.4286H151.858V15.2686H146.608V28.5714H141.759V15.2686Z" fill="#1C3144"/>
<path d="M170.376 23.9314C170.376 26.8571 168.145 28.5486 163.822 28.5486H155.656V11.4514H163.33C167.265 11.4514 169.461 13.1086 169.461 15.8743C169.461 17.7257 168.511 19.0286 167.162 19.68C169.095 20.2171 170.364 21.6571 170.364 23.9314H170.376ZM158.103 13.4286V18.9028H163.113C165.606 18.9028 167.025 17.9771 167.025 16.1714C167.025 14.3657 165.606 13.44 163.113 13.44H158.103V13.4286ZM167.905 23.7371C167.905 21.76 166.441 20.88 163.731 20.88H158.115V26.5714H163.731C166.441 26.5714 167.905 25.7143 167.905 23.7371Z" fill="#1C3144"/>
<path d="M185.599 28.5486L181.905 23.3028C181.562 23.3257 181.196 23.3486 180.83 23.3486H176.598V28.5486H174.15V11.4514H180.818C185.268 11.4514 187.955 13.7028 187.955 17.4057C187.955 20.0457 186.583 21.9543 184.192 22.8L188.253 28.5371H185.588L185.599 28.5486ZM185.531 17.4171C185.531 14.9714 183.895 13.5771 180.761 13.5771H176.609V21.2686H180.761C183.895 21.2686 185.531 19.8514 185.531 17.4057V17.4171Z" fill="#1C3144"/>
<path d="M191.936 11.4514H194.383V28.5486H191.936V11.4514Z" fill="#1C3144"/>
<path d="M199.519 11.4514H206.725C212.226 11.4514 215.966 14.9257 215.966 20C215.966 25.0743 212.226 28.5486 206.725 28.5486H199.519V11.4514ZM206.588 26.4228C210.819 26.4228 213.53 23.8286 213.53 20C213.53 16.1714 210.819 13.5771 206.588 13.5771H201.967V26.4228H206.588Z" fill="#1C3144"/>
<path d="M231.567 19.8972H233.912V26.56C232.196 28 229.829 28.7314 227.438 28.7314C222.188 28.7314 218.323 25.04 218.323 19.9886C218.323 14.9372 222.188 11.2457 227.484 11.2457C230.195 11.2457 232.494 12.1486 234.061 13.8857L232.551 15.4057C231.133 14.0343 229.52 13.4286 227.587 13.4286C223.63 13.4286 220.77 16.1943 220.77 20C220.77 23.8057 223.63 26.5714 227.564 26.5714C229.005 26.5714 230.355 26.2514 231.567 25.4743V19.9086V19.8972Z" fill="#1C3144"/>
<path d="M251 26.4228V28.5486H238.579V11.4514H250.657V13.5771H241.026V18.8343H249.605V20.9028H241.026V26.4228H251Z" fill="#1C3144"/>
</g>
<defs>
<clipPath id="clip0_59_13055">
<rect width="251" height="40" fill="white"/>
</clipPath>
</defs>
</svg>
