<svg width="30" height="26" viewBox="0 0 30 26" fill="none" xmlns="http://www.w3.org/2000/svg">
<path d="M26.2486 4.03595L27.4991 5.28166L30 2.79024L28.7495 1.54453C26.6823 -0.514845 23.3177 -0.514845 21.2505 1.54453L20 2.79024L18.7495 1.54453C16.6823 -0.514845 13.3177 -0.514845 11.2505 1.54453L10 2.79024L8.74955 1.54453C6.68233 -0.514845 3.31767 -0.514845 1.25045 1.54453L0 2.79024L2.5009 5.28166L3.75136 4.03595C4.44163 3.34829 5.56198 3.34829 6.25226 4.03595L7.50271 5.28166L6.25226 6.52737C4.18504 8.58675 4.18504 11.9386 6.25226 13.998L7.50271 15.2437L2.50452 20.223L7.50271 25.2022L10.0036 22.7108L7.50271 20.2194L10.0036 17.7279L15.0018 22.7072L20 17.7279L22.5009 20.2194L20 22.7108L22.5009 25.2022L27.4991 20.223L22.5009 15.2437L23.7514 13.998C25.8186 11.9386 25.8186 8.58675 23.7514 6.52737L22.5009 5.28166L23.7514 4.03595C24.4416 3.34829 25.562 3.34829 26.2523 4.03595H26.2486ZM13.7514 4.03595C14.4416 3.34829 15.562 3.34829 16.2523 4.03595L17.5027 5.28166L15.0018 7.77308L12.5009 5.28166L13.7514 4.03595ZM8.75316 11.5066C8.06288 10.8189 8.06288 9.70284 8.75316 9.01518L10.0036 7.76947L12.5045 10.2609L10.0036 12.7523L8.75316 11.5066ZM15.0018 17.7315L12.5009 15.2401L15.0018 12.7487L17.5027 15.2401L15.0018 17.7315ZM21.2505 9.01518C21.9407 9.70284 21.9407 10.8189 21.2505 11.5066L20 12.7523L17.4991 10.2609L20 7.76947L21.2505 9.01518Z" fill="#FFC914"/>
</svg>
