<svg width="123" height="30" viewBox="0 0 123 30" fill="none" xmlns="http://www.w3.org/2000/svg">
<g clip-path="url(#clip0_17_12861)">
<path d="M31.0946 4.78106L32.5759 6.25675L35.5386 3.30537L34.0573 1.82968C31.6084 -0.609895 27.6226 -0.609895 25.1737 1.82968L23.6924 3.30537L22.2111 1.82968C19.7622 -0.609895 15.7764 -0.609895 13.3275 1.82968L11.8462 3.30537L10.3649 1.82968C7.91601 -0.609895 3.93018 -0.609895 1.48131 1.82968L0 3.30537L2.96262 6.25675L4.44393 4.78106C5.26164 3.96645 6.58883 3.96645 7.40654 4.78106L8.88785 6.25675L7.40654 7.73244C4.95767 10.172 4.95767 14.1427 7.40654 16.5823L8.88785 18.058L2.9669 23.9565L8.88785 29.855L11.8505 26.9036L8.88785 23.9522L11.8505 21.0009L17.7714 26.8993L23.6924 21.0009L26.655 23.9522L23.6924 26.9036L26.655 29.855L32.5759 23.9565L26.655 18.058L28.1363 16.5823C30.5852 14.1427 30.5852 10.172 28.1363 7.73244L26.655 6.25675L28.1363 4.78106C28.954 3.96645 30.2812 3.96645 31.0989 4.78106H31.0946ZM16.2901 4.78106C17.1078 3.96645 18.435 3.96645 19.2527 4.78106L20.734 6.25675L17.7714 9.20813L14.8088 6.25675L16.2901 4.78106ZM10.3692 13.6309C9.55144 12.8163 9.55144 11.4942 10.3692 10.6796L11.8505 9.20387L14.8131 12.1552L11.8505 15.1066L10.3692 13.6309ZM17.7714 21.0051L14.8088 18.0537L17.7714 15.1024L20.734 18.0537L17.7714 21.0051ZM25.1737 10.6796C25.9914 11.4942 25.9914 12.8163 25.1737 13.6309L23.6924 15.1066L20.7298 12.1552L23.6924 9.20387L25.1737 10.6796Z" fill="#35CE8D"/>
<path d="M45.9333 18.6508V23.112H52.3723V24.6858H45.9333V29.8593H44.0967V17.0643H53.1601V18.6551H45.929L45.9333 18.6508Z" fill="#1C3144"/>
<path d="M55.5276 17.06H57.3642V29.855H55.5276V17.06Z" fill="#1C3144"/>
<path d="M71.3425 17.06V29.855H69.8398L62.1335 20.3142V29.855H60.2969V17.06H61.7996L69.5058 26.6008V17.06H71.3425Z" fill="#1C3144"/>
<path d="M82.5551 26.6562H75.7308L74.318 29.855H72.4299L78.2481 17.06H80.0634L85.8987 29.855H83.9722L82.5593 26.6562H82.5551ZM81.9129 25.1933L79.1429 18.9238L76.373 25.1933H81.9129Z" fill="#1C3144"/>
<path d="M98.006 17.06V29.855H96.5033L88.7971 20.3142V29.855H86.9604V17.06H88.4632L96.1694 26.6008V17.06H98.006Z" fill="#1C3144"/>
<path d="M99.9497 23.4362C99.9497 19.6403 102.857 16.8723 106.778 16.8723C108.765 16.8723 110.499 17.5505 111.676 18.8726L110.482 20.0284C109.488 18.9835 108.272 18.5058 106.855 18.5058C103.948 18.5058 101.795 20.5957 101.795 23.4404C101.795 26.2852 103.948 28.375 106.855 28.375C108.272 28.375 109.488 27.8803 110.482 26.8354L111.676 27.9912C110.499 29.3133 108.769 30.0085 106.761 30.0085C102.857 30.0085 99.9497 27.2406 99.9497 23.4447V23.4362Z" fill="#1C3144"/>
<path d="M123 28.2428V29.8337H113.68V17.0387H122.743V18.6295H115.512V22.5576H121.951V24.11H115.512V28.2428H123Z" fill="#1C3144"/>
<path d="M54.4102 9.99716V12.795H44.0967V0H54.4102V2.79784H47.6929V4.95593H53.3998V7.65994H47.6929V10.0014H54.4102V9.99716Z" fill="#1C3144"/>
<path d="M68.0245 12.795L67.986 6.01365L64.6851 11.5326H63.0711L59.7874 6.19704V12.795H56.4309V0H59.4235L63.9359 7.38271L68.337 0H71.3296L71.3681 12.795H68.0288H68.0245Z" fill="#1C3144"/>
<path d="M85.1239 12.795L85.0853 6.01365L81.7845 11.5326H80.1705L76.8868 6.19704V12.795H73.5303V0H76.5186L81.031 7.38271L85.4364 0H88.429L88.4675 12.795H85.1281H85.1239Z" fill="#1C3144"/>
<path d="M100.939 9.99716V12.795H90.6252V0H100.939V2.79784H94.2215V4.95593H99.9284V7.65994H94.2215V10.0014H100.939V9.99716Z" fill="#1C3144"/>
<path d="M106.119 2.87034H102.176V0H113.68V2.87034H109.754V12.795H106.119V2.87034Z" fill="#1C3144"/>
</g>
<defs>
<clipPath id="clip0_17_12861">
<rect width="123" height="30" fill="white"/>
</clipPath>
</defs>
</svg>
