<svg width="80" height="80" viewBox="0 0 80 80" fill="none" xmlns="http://www.w3.org/2000/svg">
<path d="M58.0362 54.9121H21.9639V78.4376H58.0362V54.9121Z" fill="#9AE6C6"/>
<path d="M45.2054 44.8933L57.8982 46.6263C62.4888 47.3336 65.878 51.2827 65.878 55.9283V59.8382V78.4374H14.1221V55.9283C14.1221 51.2828 17.5113 47.3336 22.1019 46.6263L34.7947 44.8933" stroke="#1C3144" stroke-width="2" stroke-miterlimit="10" stroke-linecap="round" stroke-linejoin="round"/>
<path d="M40 70.5958C42.1655 70.5958 43.921 68.8403 43.921 66.6748C43.921 64.5094 42.1655 62.7539 40 62.7539C37.8346 62.7539 36.0791 64.5094 36.0791 66.6748C36.0791 68.8403 37.8346 70.5958 40 70.5958Z" stroke="#1C3144" stroke-width="2" stroke-miterlimit="10" stroke-linecap="round" stroke-linejoin="round"/>
<path d="M28.2375 27.3419V29.0217C28.2375 35.5181 33.504 40.7844 40.0002 40.7844C46.4966 40.7844 51.7629 35.5179 51.7629 29.0217V26.9136" stroke="#1C3144" stroke-width="2" stroke-miterlimit="10" stroke-linecap="round" stroke-linejoin="round"/>
<path d="M45.4894 39.3931V43.1493C45.4894 46.1809 43.0318 48.6385 40.0002 48.6385C36.9686 48.6385 34.511 46.1809 34.511 43.1493V39.4087" stroke="#1C3144" stroke-width="2" stroke-miterlimit="10" stroke-linecap="round" stroke-linejoin="round"/>
<path d="M48.6745 3.92465C43.3204 0.775117 36.6798 0.775117 31.3257 3.92465C28.2951 5.70746 25.8873 8.38059 24.43 11.5806L12.5537 37.66C14.0376 35.9539 24.2706 25.4517 40.0001 25.1131C56.6496 24.7546 66.0656 36.0737 67.4465 37.66C63.4878 28.9668 59.529 20.2737 55.5703 11.5804C54.1129 8.38059 51.7053 5.7073 48.6745 3.92465Z" stroke="#1C3144" stroke-width="2" stroke-miterlimit="10" stroke-linecap="round" stroke-linejoin="round"/>
<path d="M22.4987 46.5715L12.5537 37.6599" stroke="#1C3144" stroke-width="2" stroke-miterlimit="10" stroke-linecap="round" stroke-linejoin="round"/>
<path d="M67.4465 37.6599L57.5015 46.5715" stroke="#1C3144" stroke-width="2" stroke-miterlimit="10" stroke-linecap="round" stroke-linejoin="round"/>
<path d="M37.2546 32.9399C37.3676 33.0862 38.3231 34.4979 39.9773 34.5087C41.6593 34.5198 42.637 33.0807 42.7457 32.9399" stroke="#1C3144" stroke-width="2" stroke-miterlimit="10" stroke-linecap="round" stroke-linejoin="round"/>
</svg>
