<svg width="80" height="80" viewBox="0 0 80 80" fill="none" xmlns="http://www.w3.org/2000/svg">
<path d="M43.8876 47.3236H2.34375V1.5625H67.6952V21.9207" stroke="#1C3144" stroke-width="2" stroke-miterlimit="22.9256" stroke-linecap="round" stroke-linejoin="round"/>
<path d="M66.914 8.59375H32.031L26.5624 15.625H3.125" stroke="#1C3144" stroke-width="2" stroke-miterlimit="22.9256" stroke-linecap="round" stroke-linejoin="round"/>
<path d="M9.375 8.59375H9.37609" stroke="#1C3144" stroke-width="2" stroke-miterlimit="22.9256" stroke-linecap="round" stroke-linejoin="round"/>
<path d="M16.4062 8.59375H16.4073" stroke="#1C3144" stroke-width="2" stroke-miterlimit="22.9256" stroke-linecap="round" stroke-linejoin="round"/>
<path d="M23.4373 8.59375H23.4385" stroke="#1C3144" stroke-width="2" stroke-miterlimit="22.9256" stroke-linecap="round" stroke-linejoin="round"/>
<path d="M37.3611 53.5783L18.0264 72.9131L23.5506 78.4373L42.8854 59.1025L37.3611 53.5783Z" stroke="#1C3144" stroke-width="2" stroke-miterlimit="22.9256" stroke-linecap="round" stroke-linejoin="round"/>
<path d="M45.3599 51.1045L40.5657 55.8987" stroke="#1C3144" stroke-width="2" stroke-miterlimit="22.9256" stroke-linecap="round" stroke-linejoin="round"/>
<path d="M26.5624 23.5498H9.37598" stroke="#1C3144" stroke-width="2" stroke-miterlimit="22.9256" stroke-linecap="round" stroke-linejoin="round"/>
<path d="M26.5624 31.4741H9.37598" stroke="#1C3144" stroke-width="2" stroke-miterlimit="22.9256" stroke-linecap="round" stroke-linejoin="round"/>
<path d="M17.9691 39.3989H9.37598" stroke="#1C3144" stroke-width="2" stroke-miterlimit="22.9256" stroke-linecap="round" stroke-linejoin="round"/>
<path d="M58.9064 57.8704C70.1247 57.8704 79.2188 48.7763 79.2188 37.558C79.2188 26.3398 70.1247 17.2456 58.9064 17.2456C47.6882 17.2456 38.594 26.3398 38.594 37.558C38.594 48.7763 47.6882 57.8704 58.9064 57.8704Z" fill="#9AE6C6"/>
<path fill-rule="evenodd" clip-rule="evenodd" d="M58.9061 27.7925C60.8398 27.7925 62.4219 29.3745 62.4219 31.3081V43.8081C62.4219 45.7417 60.8398 47.3237 58.9062 47.3237H58.9061C56.9725 47.3237 55.3906 45.7417 55.3906 43.8081V31.3081C55.3906 29.3745 56.9725 27.7925 58.9061 27.7925Z" stroke="#1C3144" stroke-width="2" stroke-miterlimit="22.9256" stroke-linecap="round" stroke-linejoin="round"/>
<path d="M54.6094 31.3081H50.1172V27.7925" stroke="#1C3144" stroke-width="2" stroke-miterlimit="22.9256" stroke-linecap="round" stroke-linejoin="round"/>
<path d="M54.6094 37.5581H50.1172" stroke="#1C3144" stroke-width="2" stroke-miterlimit="22.9256" stroke-linecap="round" stroke-linejoin="round"/>
<path d="M54.6094 43.8081H50.1172V47.3237" stroke="#1C3144" stroke-width="2" stroke-miterlimit="22.9256" stroke-linecap="round" stroke-linejoin="round"/>
<path d="M63.2031 31.3081H67.6952V27.7925" stroke="#1C3144" stroke-width="2" stroke-miterlimit="22.9256" stroke-linecap="round" stroke-linejoin="round"/>
<path d="M63.2031 37.5581H67.6952" stroke="#1C3144" stroke-width="2" stroke-miterlimit="22.9256" stroke-linecap="round" stroke-linejoin="round"/>
<path d="M63.2031 43.8081H67.6952V47.3237" stroke="#1C3144" stroke-width="2" stroke-miterlimit="22.9256" stroke-linecap="round" stroke-linejoin="round"/>
</svg>
