<svg width="80" height="80" viewBox="0 0 80 80" fill="none" xmlns="http://www.w3.org/2000/svg">
<path d="M2.50366 22.3655V39.7323L17.084 48.1206L31.6644 39.7323V22.3655L17.084 13.9772L2.50366 22.3655Z" fill="#9AE6C6"/>
<path d="M17.084 48.12V63.5438L31.6645 71.9319L46.2448 63.5438V48.12L31.6645 39.7317L17.084 48.12Z" fill="#9AE6C6"/>
<path d="M60.8253 39.7323V22.3655L46.245 13.9772L31.6646 22.3655V39.7323L46.245 48.1206L60.8253 39.7323Z" stroke="#1C3144" stroke-width="2" stroke-miterlimit="10" stroke-linecap="round" stroke-linejoin="round"/>
<mask id="mask0_64_13381" style="mask-type:luminance" maskUnits="userSpaceOnUse" x="0" y="0" width="80" height="80">
<path d="M0 7.62939e-06H80V80H0V7.62939e-06Z" fill="white"/>
</mask>
<g mask="url(#mask0_64_13381)">
<path d="M60.74 22.3872H74.6542V12.1092" stroke="#1C3144" stroke-width="2" stroke-miterlimit="10" stroke-linecap="round" stroke-linejoin="round"/>
<path d="M78.4375 8.07449C78.4375 10.1492 76.7437 11.8311 74.6544 11.8311C72.565 11.8311 70.8711 10.1492 70.8711 8.07449C70.8711 5.99996 72.565 4.31793 74.6544 4.31793C76.7437 4.31793 78.4375 5.99996 78.4375 8.07449Z" stroke="#1C3144" stroke-width="2" stroke-miterlimit="10" stroke-linecap="round" stroke-linejoin="round"/>
<path d="M29.6687 57.6129H5.3457V67.8909" stroke="#1C3144" stroke-width="2" stroke-miterlimit="10" stroke-linecap="round" stroke-linejoin="round"/>
<path d="M1.5625 71.9256C1.5625 69.8509 3.25625 68.169 5.34562 68.169C7.435 68.169 9.12891 69.8509 9.12891 71.9256C9.12891 74.0001 7.435 75.6821 5.34562 75.6821C3.25625 75.6821 1.5625 74.0001 1.5625 71.9256Z" stroke="#1C3144" stroke-width="2" stroke-miterlimit="10" stroke-linecap="round" stroke-linejoin="round"/>
</g>
</svg>
