<svg width="80" height="80" viewBox="0 0 80 80" fill="none" xmlns="http://www.w3.org/2000/svg">
<path d="M13.9419 50.7254V29.3609M17.7408 22.7657L36.2205 12.0965M43.6585 12.0303L62.2624 22.7712M66.0517 29.2637V50.7048M62.2981 57.212L43.7505 67.9204M36.2717 67.9368L17.6894 57.2082" stroke="#1C3144" stroke-width="2" stroke-miterlimit="22.9256" stroke-linecap="round" stroke-linejoin="round"/>
<path d="M43.3279 72.6071C44.7199 70.767 44.3567 68.1468 42.5166 66.7548C40.6764 65.3628 38.0563 65.726 36.6643 67.5661C35.2723 69.4063 35.6355 72.0264 37.4756 73.4184C39.3157 74.8104 41.9359 74.4472 43.3279 72.6071Z" stroke="#1C3144" stroke-width="2" stroke-miterlimit="22.9256" stroke-linecap="round" stroke-linejoin="round"/>
<path d="M67.5193 58.9573C69.6804 58.1485 70.7767 55.7411 69.9679 53.58C69.1592 51.4189 66.7517 50.3227 64.5907 51.1314C62.4296 51.9401 61.3333 54.3476 62.1421 56.5086C62.9508 58.6697 65.3583 59.766 67.5193 58.9573Z" stroke="#1C3144" stroke-width="2" stroke-miterlimit="22.9256" stroke-linecap="round" stroke-linejoin="round"/>
<path d="M16.0014 58.6809C18.0097 57.5448 18.7168 54.9957 17.5806 52.9874C16.4445 50.9791 13.8954 50.272 11.8871 51.4082C9.87879 52.5443 9.17175 55.0934 10.3079 57.1017C11.444 59.11 13.9931 59.817 16.0014 58.6809Z" stroke="#1C3144" stroke-width="2" stroke-miterlimit="22.9256" stroke-linecap="round" stroke-linejoin="round"/>
<path fill-rule="evenodd" clip-rule="evenodd" d="M69.6698 22.8698C68.5162 20.8717 65.961 20.187 63.9629 21.3406C61.9646 22.4942 61.2801 25.0494 62.4337 27.0475C63.5873 29.0458 66.1424 29.7303 68.1406 28.5767C70.1388 27.4233 70.8235 24.8681 69.6698 22.8698Z" stroke="#1C3144" stroke-width="2" stroke-miterlimit="22.9256" stroke-linecap="round" stroke-linejoin="round"/>
<path fill-rule="evenodd" clip-rule="evenodd" d="M43.6148 7.82737C42.4612 5.82924 39.9061 5.14455 37.9079 6.29815C35.9098 7.45174 35.2251 10.0069 36.3787 12.005C37.5323 14.0031 40.0875 14.6878 42.0856 13.5342C44.0839 12.3806 44.7684 9.82565 43.6148 7.82737Z" stroke="#1C3144" stroke-width="2" stroke-miterlimit="22.9256" stroke-linecap="round" stroke-linejoin="round"/>
<path fill-rule="evenodd" clip-rule="evenodd" d="M17.5599 22.8698C16.4063 20.8717 13.8511 20.187 11.853 21.3406C9.85488 22.4942 9.17019 25.0494 10.3238 27.0475C11.4774 29.0458 14.0325 29.7303 16.0307 28.5767C18.0289 27.4233 18.7136 24.8681 17.5599 22.8698Z" stroke="#1C3144" stroke-width="2" stroke-miterlimit="22.9256" stroke-linecap="round" stroke-linejoin="round"/>
<path d="M69.9863 22.6873L73.2877 20.7812" stroke="#1C3144" stroke-width="2" stroke-miterlimit="2.6131" stroke-linecap="round" stroke-linejoin="round"/>
<path d="M40 5.37469V1.5625" stroke="#1C3144" stroke-width="2" stroke-miterlimit="2.6131" stroke-linecap="round" stroke-linejoin="round"/>
<path d="M10.0136 22.6873L6.71216 20.7812" stroke="#1C3144" stroke-width="2" stroke-miterlimit="2.6131" stroke-linecap="round" stroke-linejoin="round"/>
<path d="M10.0136 57.3125L6.71216 59.2186" stroke="#1C3144" stroke-width="2" stroke-miterlimit="2.6131" stroke-linecap="round" stroke-linejoin="round"/>
<path d="M40 74.6255V78.4377" stroke="#1C3144" stroke-width="2" stroke-miterlimit="2.6131" stroke-linecap="round" stroke-linejoin="round"/>
<path d="M69.9863 57.3125L73.2877 59.2186" stroke="#1C3144" stroke-width="2" stroke-miterlimit="2.6131" stroke-linecap="round" stroke-linejoin="round"/>
<path d="M24.5695 31.095L17.7603 27.1636" stroke="#1C3144" stroke-width="2" stroke-miterlimit="2.6131" stroke-linecap="round" stroke-linejoin="round"/>
<path d="M25.3153 48.4785L17.7603 52.8402" stroke="#1C3144" stroke-width="2" stroke-miterlimit="2.6131" stroke-linecap="round" stroke-linejoin="round"/>
<path d="M39.9967 55.5879L39.9966 65.6785" stroke="#1C3144" stroke-width="2" stroke-miterlimit="2.6131" stroke-linecap="round" stroke-linejoin="round"/>
<path d="M54.4915 48.3701L62.2333 52.84" stroke="#1C3144" stroke-width="2" stroke-miterlimit="2.6131" stroke-linecap="round" stroke-linejoin="round"/>
<path d="M54.9602 31.3626L62.2333 27.1636" stroke="#1C3144" stroke-width="2" stroke-miterlimit="2.6131" stroke-linecap="round" stroke-linejoin="round"/>
<path d="M39.9966 23.4782L39.9967 14.3252" stroke="#1C3144" stroke-width="2" stroke-miterlimit="2.6131" stroke-linecap="round" stroke-linejoin="round"/>
<path fill-rule="evenodd" clip-rule="evenodd" d="M23.1997 30.3038L39.9967 20.606L56.7939 30.3038V49.6996L39.9967 59.3974L23.1997 49.6996V30.3038Z" fill="#9AE6C6"/>
<path fill-rule="evenodd" clip-rule="evenodd" d="M35.8046 31.1348C35.8046 33.4499 33.9277 35.3268 31.6125 35.3268C31.6125 41.742 32.6854 47.9257 39.9966 49.8848C47.3079 47.9257 48.3807 41.742 48.3807 35.3268C46.0655 35.3268 44.1886 33.4499 44.1886 31.1348H35.8046Z" stroke="#1C3144" stroke-width="2" stroke-miterlimit="22.9256" stroke-linecap="round" stroke-linejoin="round"/>
</svg>
