<svg xmlns="http://www.w3.org/2000/svg" width="101" height="84" viewBox="0 0 101 84" version="1.1"><path d="M 8 2.140 C 6.075 3.313, 3.499 5.437, 2.277 6.860 L 0.053 9.446 2.777 12.309 C 7.240 17.001, 8.487 17.303, 11.822 14.496 C 15.631 11.292, 18.697 11.335, 22.150 14.644 L 24.910 17.288 21.434 21.349 C 14.476 29.477, 14.307 38.744, 20.980 46.178 L 24.860 50.500 16.695 58.757 L 8.530 67.015 16.738 75.223 L 24.946 83.431 27.623 81.432 C 29.096 80.333, 30.949 78.456, 31.742 77.262 C 33.078 75.251, 32.919 74.817, 29.592 71.392 C 27.616 69.358, 26 67.401, 26 67.043 C 26 65.983, 32.503 60, 33.655 60 C 34.238 60, 38.195 63.424, 42.448 67.609 L 50.181 75.217 53.340 72.167 C 61.203 64.578, 66.542 60, 67.532 60 C 68.124 60, 70.097 61.536, 71.916 63.414 C 75.519 67.131, 75.411 67.942, 70.794 71.827 C 69.257 73.120, 68 74.725, 68 75.393 C 68 77.552, 74.701 83.303, 76.164 82.399 C 79.560 80.300, 91.001 68.497, 91.008 67.085 C 91.013 66.213, 87.566 62.280, 83.349 58.345 L 75.682 51.189 79.356 46.898 C 86.958 38.016, 86.531 29.002, 78.068 19.668 L 75.500 16.836 78.500 14.423 C 82.367 11.312, 86.031 11.339, 89 14.500 C 90.292 15.875, 91.705 17, 92.141 17 C 93.382 17, 100 10.637, 100 9.444 C 100 8.187, 95.650 4.077, 91.785 1.682 C 88.446 -0.387, 79.935 -0.538, 76.200 1.405 C 74.715 2.178, 72.409 3.978, 71.076 5.405 C 68.426 8.241, 65.552 8.767, 64.300 6.646 C 63.860 5.901, 61.596 4.101, 59.270 2.646 C 56.082 0.652, 53.741 0.001, 49.770 0.004 C 45.172 0.008, 43.828 0.518, 39.230 4.004 C 36.331 6.202, 33.621 8, 33.208 8 C 32.794 8, 30.891 6.719, 28.978 5.153 C 23.752 0.876, 21.596 -0, 16.316 0.004 C 13.166 0.006, 10.289 0.745, 8 2.140 M 45.635 14.073 C 44.186 15.212, 43 16.699, 43 17.376 C 43 18.834, 49.148 25, 50.601 25 C 51.962 25, 58 18.692, 58 17.270 C 58 15.674, 52.584 12, 50.230 12 C 49.152 12, 47.084 12.933, 45.635 14.073 M 62.565 30.190 L 58.807 34.278 62.954 38.389 L 67.100 42.500 70.050 39.234 C 73.374 35.555, 73.701 33.446, 71.449 30.230 C 68.321 25.764, 66.642 25.757, 62.565 30.190 M 30.174 29.314 C 27.201 32.479, 27.425 36.075, 30.798 39.307 L 33.596 41.988 37.298 38.496 C 39.334 36.576, 41 34.642, 41 34.198 C 41 33.042, 34.602 27, 33.377 27 C 32.811 27, 31.370 28.042, 30.174 29.314 M 46.196 46.298 C 44.438 48.111, 43 50.048, 43 50.601 C 43 51.893, 49.275 58, 50.601 58 C 51.155 58, 53.116 56.443, 54.960 54.541 C 57.942 51.464, 58.158 50.888, 56.906 49.323 C 55.124 47.094, 50.675 43.073, 49.946 43.032 C 49.642 43.014, 47.954 44.484, 46.196 46.298" stroke="none" fill="#eec119" fill-rule="evenodd"/></svg>