<svg width="127" height="127" viewBox="0 0 127 127" fill="none" xmlns="http://www.w3.org/2000/svg">
<path d="M38.7176 53.203L63.3056 28.616L87.9066 53.216L102.214 38.909L63.3056 0L24.4106 38.896L38.7176 53.203Z" fill="#F3BA2F"/>
<path d="M28.6141 63.3033L14.3074 48.9965L-8.59528e-05 63.304L14.3067 77.6107L28.6141 63.3033Z" fill="#F3BA2F"/>
<path d="M38.7176 73.408L63.3056 97.995L87.9056 73.396L102.221 87.695L102.214 87.703L63.3056 126.611L24.4096 87.716L24.3896 87.696L38.7176 73.408Z" fill="#F3BA2F"/>
<path d="M112.305 77.6175L126.613 63.31L112.306 49.0032L97.9986 63.3107L112.305 77.6175Z" fill="#F3BA2F"/>
<path d="M77.8175 63.298H77.8235L63.3055 48.78L52.5765 59.509H52.5755L51.3435 60.742L48.8005 63.285L48.7805 63.305L48.8005 63.326L63.3055 77.831L77.8235 63.313L77.8305 63.305L77.8175 63.298Z" fill="#F3BA2F"/>
</svg>
