<svg xmlns="http://www.w3.org/2000/svg" width="24" height="24" viewBox="0 0 24 24" fill="none">
    <g clip-path="url(#e8ld22fjsa)" fill="#1C3144" style="&#10;    fill: #8e98a1;&#10;">
        <path d="M12 7.125A4.88 4.88 0 0 0 7.125 12 4.88 4.88 0 0 0 12 16.875 4.88 4.88 0 0 0 16.875 12 4.88 4.88 0 0 0 12 7.125zm0 8.125A3.254 3.254 0 0 1 8.75 12 3.254 3.254 0 0 1 12 8.75 3.254 3.254 0 0 1 15.25 12 3.254 3.254 0 0 1 12 15.25z"/>
        <path d="M12 9.969c-1.12 0-2.031.911-2.031 2.031s.911 2.031 2.031 2.031 2.031-.911 2.031-2.031S13.12 9.969 12 9.969zm0 2.437a.407.407 0 1 1 0-.813.407.407 0 0 1 0 .813zM18.5 18.46H7.48l.893-.894a.813.813 0 1 0-1.15-1.15L5.033 18.61a.811.811 0 0 0-.345.663v.009a.81.81 0 0 0 .238.583l2.299 2.298a.813.813 0 0 0 1.149-1.149l-.929-.929H18.5a.812.812 0 1 0 0-1.625zM19.312 4.72a.81.81 0 0 0-.238-.584l-2.298-2.298a.812.812 0 1 0-1.149 1.15l.929.928H5.5a.812.812 0 1 0 0 1.625h11.02l-.893.893a.812.812 0 1 0 1.15 1.15l2.191-2.192a.81.81 0 0 0 .345-.664V4.72z"/>
    </g>
    <defs>
        <clipPath id="e8ld22fjsa">
            <path fill="#fff" transform="translate(1.6 1.6)" d="M0 0h20.8v20.8H0z"/>
        </clipPath>
    </defs>
</svg>