<svg width="20" height="20" viewBox="0 0 20 20" fill="none" xmlns="http://www.w3.org/2000/svg">
    <path d="M10 18.333a8.333 8.333 0 1 1 0-16.666 8.333 8.333 0 0 1 0 16.666zM8.092 16.39a14.917 14.917 0 0 1-1.402-5.557H3.385a6.673 6.673 0 0 0 4.707 5.557zm.267-5.557A13.254 13.254 0 0 0 10 16.46a13.256 13.256 0 0 0 1.641-5.627H8.36zm8.256 0h-3.304a14.917 14.917 0 0 1-1.403 5.557 6.674 6.674 0 0 0 4.707-5.557zM3.385 9.167H6.69c.108-1.979.6-3.855 1.402-5.556a6.674 6.674 0 0 0-4.707 5.556zm4.974 0h3.282a13.256 13.256 0 0 0-1.64-5.627 13.254 13.254 0 0 0-1.642 5.627zm3.55-5.556a14.917 14.917 0 0 1 1.402 5.556h3.304a6.674 6.674 0 0 0-4.707-5.556z" fill="#1C3144"/>
</svg>
