<svg width="24" height="24" viewBox="0 0 24 24" fill="none" xmlns="http://www.w3.org/2000/svg">
    <g clip-path="url(#p7jofo8uja)">
        <mask id="2iax1w4czb" style="mask-type:luminance" maskUnits="userSpaceOnUse" x="1" y="1" width="22" height="22">
            <path d="M22.4 1.6H1.6v20.8h20.8V1.6z" fill="#fff"/>
        </mask>
        <g mask="url(#2iax1w4czb)">
            <mask id="5w1ugxjkhc" style="mask-type:luminance" maskUnits="userSpaceOnUse" x="1" y="1" width="22" height="22">
                <path d="M1.6 1.6h20.8v20.8H1.6V1.6z" fill="#fff"/>
            </mask>
            <g mask="url(#5w1ugxjkhc)" stroke="#8D98A1" stroke-width="1.6" stroke-miterlimit="10" stroke-linecap="round" stroke-linejoin="round">
                <path d="M12 12.163a4.88 4.88 0 0 1-4.875-4.875A4.88 4.88 0 0 1 12 2.413a4.88 4.88 0 0 1 4.875 4.875A4.88 4.88 0 0 1 12 12.163z"/>
                <path d="M12 8.913c-.896 0-1.625-.73-1.625-1.625 0-.896.73-1.625 1.625-1.625.896 0 1.625.729 1.625 1.625 0 .895-.73 1.625-1.625 1.625zM12 12.163v9.425M19.962 15.088v6.5M21.587 13.463a1.625 1.625 0 1 1-3.25 0 1.625 1.625 0 0 1 3.25 0zM21.587 19.963l-1.625 1.625M18.337 18.338l1.625 1.625M4.037 15.088v6.5M2.412 13.463a1.625 1.625 0 1 0 3.25 0 1.625 1.625 0 0 0-3.25 0zM2.412 19.963l1.625 1.625M5.662 18.338l-1.625 1.625M12 18.5h-1.625a1.625 1.625 0 0 1-1.625-1.625V15.25A3.25 3.25 0 0 1 12 18.5zM12 20.125h1.625c.898 0 1.625-.727 1.625-1.625v-1.625a3.25 3.25 0 0 0-3.25 3.25z"/>
            </g>
        </g>
    </g>
    <defs>
        <clipPath id="p7jofo8uja">
            <path fill="#fff" transform="translate(1.6 1.6)" d="M0 0h20.8v20.8H0z"/>
        </clipPath>
    </defs>
</svg>
