<svg width="20" height="20" viewBox="0 0 20 20" fill="none" xmlns="http://www.w3.org/2000/svg">
    <path d="M17.206 2.229 10.96 6.868l1.155-2.737 5.091-1.902z" fill="#E2761B" stroke="#E2761B" stroke-linecap="round" stroke-linejoin="round"/>
    <path d="m2.787 2.229 6.196 4.683L7.884 4.13 2.787 2.229zM14.959 12.982l-1.664 2.549 3.56.979 1.023-3.472-2.92-.056zM2.128 13.038l1.017 3.472 3.56-.98-1.664-2.548-2.913.056z" fill="#E4761B" stroke="#E4761B" stroke-linecap="round" stroke-linejoin="round"/>
    <path d="m6.504 8.676-.992 1.5 3.534.157-.126-3.798-2.416 2.14zM13.49 8.676 11.042 6.49l-.082 3.842 3.528-.157-.998-1.5zM6.704 15.53l2.122-1.035-1.833-1.431-.289 2.466zM11.168 14.495l2.128 1.036L13 13.063l-1.833 1.432z" fill="#E4761B" stroke="#E4761B" stroke-linecap="round" stroke-linejoin="round"/>
    <path d="m13.296 15.53-2.128-1.035.169 1.387-.019.584 1.978-.936zM6.704 15.53l1.978.936-.013-.584.157-1.387-2.122 1.035z" fill="#D7C1B3" stroke="#D7C1B3" stroke-linecap="round" stroke-linejoin="round"/>
    <path d="m8.713 12.147-1.77-.521 1.25-.571.52 1.092zM11.28 12.147l.522-1.092 1.255.57-1.776.522z" fill="#233447" stroke="#233447" stroke-linecap="round" stroke-linejoin="round"/>
    <path d="m6.705 15.53.3-2.548-1.964.056 1.664 2.492zM12.995 12.982l.3 2.548 1.665-2.492-1.965-.056zM14.488 10.176l-3.528.157.327 1.814.52-1.092 1.256.57 1.425-1.45zM6.943 11.626l1.255-.571.515 1.092.333-1.814-3.534-.157 1.431 1.45z" fill="#CD6116" stroke="#CD6116" stroke-linecap="round" stroke-linejoin="round"/>
    <path d="m5.512 10.176 1.481 2.887-.05-1.437-1.431-1.45zM13.064 11.626 13 13.063l1.488-2.887-1.425 1.45zM9.046 10.333l-.333 1.814.415 2.14.094-2.818-.176-1.136zM10.96 10.333l-.169 1.13.075 2.825.42-2.141-.325-1.814z" fill="#E4751F" stroke="#E4751F" stroke-linecap="round" stroke-linejoin="round"/>
    <path d="m11.287 12.147-.42 2.14.3.208 1.834-1.431.062-1.438-1.776.521zM6.943 11.626l.05 1.438 1.833 1.43.301-.206-.414-2.141-1.77-.521z" fill="#F6851B" stroke="#F6851B" stroke-linecap="round" stroke-linejoin="round"/>
    <path d="m11.318 16.466.019-.584-.157-.138H8.813l-.144.138.012.584-1.977-.936.69.566 1.4.973H11.2l1.406-.973.69-.566-1.977.936z" fill="#C0AD9E" stroke="#C0AD9E" stroke-linecap="round" stroke-linejoin="round"/>
    <path d="m11.167 14.495-.3-.207h-1.74l-.301.207-.157 1.387.144-.138h2.367l.157.138-.17-1.387z" fill="#161616" stroke="#161616" stroke-linecap="round" stroke-linejoin="round"/>
    <path d="m17.47 7.169.534-2.561-.798-2.38-6.038 4.483 2.322 1.964 3.283.96.728-.847-.313-.226.502-.458-.39-.301.503-.383-.333-.251zM1.996 4.608l.534 2.56-.34.252.503.383-.383.301.502.458-.314.226.722.848 3.283-.96L8.826 6.71 2.787 2.229l-.79 2.379z" fill="#763D16" stroke="#763D16" stroke-linecap="round" stroke-linejoin="round"/>
    <path d="m16.773 9.636-3.283-.96.998 1.5-1.487 2.887 1.958-.025h2.92l-1.106-3.402zM6.503 8.676l-3.283.96-1.092 3.402H5.04l1.952.025-1.482-2.887.992-1.5zM10.96 10.333l.207-3.622.955-2.58H7.884l.942 2.58.22 3.622.075 1.142.006 2.813h1.74l.012-2.813.081-1.142z" fill="#F6851B" stroke="#F6851B" stroke-linecap="round" stroke-linejoin="round"/>
</svg>
