<svg width="24" height="24" viewBox="0 0 24 24" fill="none" xmlns="http://www.w3.org/2000/svg">
    <g clip-path="url(#i2368wam8a)" fill="#8D98A1">
        <path d="M6.475 1.6A4.88 4.88 0 0 0 1.6 6.475a4.88 4.88 0 0 0 4.875 4.875 4.88 4.88 0 0 0 4.875-4.875A4.88 4.88 0 0 0 6.475 1.6zm0 8.125a3.254 3.254 0 0 1-3.25-3.25 3.254 3.254 0 0 1 3.25-3.25 3.254 3.254 0 0 1 3.25 3.25 3.254 3.254 0 0 1-3.25 3.25zM17.525 12.65a4.88 4.88 0 0 0-4.875 4.875 4.88 4.88 0 0 0 4.875 4.875 4.88 4.88 0 0 0 4.875-4.875 4.88 4.88 0 0 0-4.875-4.875zm0 8.125a3.254 3.254 0 0 1-3.25-3.25 3.254 3.254 0 0 1 3.25-3.25 3.254 3.254 0 0 1 3.25 3.25 3.254 3.254 0 0 1-3.25 3.25zM10.787 16.95l-.974-.974a.812.812 0 0 0-1.37.737H7.287v-2.925a.813.813 0 0 0-1.625 0v3.737c0 .449.363.813.812.813h1.967a.812.812 0 0 0 1.37.736l.975-.974a.814.814 0 0 0 0-1.15zM17.525 5.663h-1.967a.812.812 0 0 0-1.37-.737l-.975.975a.814.814 0 0 0 0 1.149l.975.974a.813.813 0 0 0 1.37-.736h1.155v2.925a.812.812 0 1 0 1.625 0V6.475a.813.813 0 0 0-.813-.812z"/>
    </g>
    <defs>
        <clipPath id="i2368wam8a">
            <path fill="#fff" transform="translate(1.6 1.6)" d="M0 0h20.8v20.8H0z"/>
        </clipPath>
    </defs>
</svg>
