<svg width="21" height="20" viewBox="0 0 21 20" fill="none" xmlns="http://www.w3.org/2000/svg">
    <g clip-path="url(#4pqch2f4pa)">
        <mask id="ptvak1q0pb" style="mask-type:luminance" maskUnits="userSpaceOnUse" x="0" y="0" width="21" height="20">
            <path d="M20.125 0h-20v20h20V0z" fill="#fff"/>
        </mask>
        <g mask="url(#ptvak1q0pb)">
            <path d="M10.125 20c5.523 0 10-4.477 10-10s-4.477-10-10-10-10 4.477-10 10 4.477 10 10 10z" fill="#3375BB"/>
            <path fill-rule="evenodd" clip-rule="evenodd" d="M9.795 3.895a.625.625 0 0 1 .802 0c1.699 1.42 3.636 1.408 4.386 1.404h.103a.625.625 0 0 1 .625.634c-.036 2.352-.13 4.03-.315 5.26-.185 1.23-.468 2.073-.925 2.707-.46.64-1.051 1.003-1.68 1.35l-.335.183c-.553.3-1.167.633-1.896 1.156a.625.625 0 0 1-.728 0c-.729-.522-1.342-.855-1.894-1.155a48.816 48.816 0 0 1-.336-.183c-.629-.348-1.22-.711-1.678-1.351-.456-.635-.739-1.477-.923-2.707-.184-1.23-.278-2.908-.313-5.26a.625.625 0 0 1 .625-.634h.102c.743.004 2.68.015 4.38-1.404zM5.95 6.545c.042 2.004.133 3.426.288 4.463.172 1.144.413 1.76.702 2.163.285.398.66.65 1.268.986l.314.17c.468.255 1.03.56 1.675.993.645-.434 1.209-.74 1.678-.993l.312-.17c.609-.337.984-.589 1.27-.986.29-.403.532-1.02.704-2.163.156-1.038.248-2.459.29-4.463-.962-.031-2.657-.23-4.254-1.38C8.6 6.315 6.909 6.514 5.949 6.546z" fill="#fff"/>
        </g>
    </g>
    <defs>
        <clipPath id="4pqch2f4pa">
            <path fill="#fff" d="M0 0h20.313v20H0z"/>
        </clipPath>
    </defs>
</svg>
