<svg width="50" height="50" viewBox="0 0 50 50" fill="none" xmlns="http://www.w3.org/2000/svg">
<g opacity="0.75">
<path fill-rule="evenodd" clip-rule="evenodd" d="M24.8097 13.9394L17.1153 21.6212L12.6386 17.1512L24.8097 5L36.9847 17.1548L32.5077 21.6245L24.8097 13.9394ZM9.47714 20.3069L5 24.7773L9.47682 29.2462L13.954 24.7764L9.47714 20.3069ZM24.8097 35.6153L17.1153 27.9339L12.6323 32.3971L12.6386 32.4035L24.8097 44.5546L36.9847 32.4L36.9869 32.3976L32.5075 27.9303L24.8097 35.6153ZM40.1425 20.3094L35.6653 24.7792L40.1423 29.2487L44.6193 24.7789L40.1425 20.3094ZM29.3525 24.7745H29.3506L29.355 24.7767L29.3528 24.7793L24.8099 29.3148L20.271 24.7826L20.2646 24.7761L20.271 24.77L21.0665 23.9755L21.4522 23.5903L24.8099 20.239L29.3525 24.7745Z" fill="white"/>
</g>
</svg>
