<svg width="50" height="48" viewBox="0 0 50 48" fill="none" xmlns="http://www.w3.org/2000/svg">
<g opacity="0.75">
<path d="M29.2034 4.75V13.8947L37.0972 9.32236L29.2034 4.75Z" fill="white"/>
<path opacity="0.9" d="M37.1011 9.32239V18.4658L44.9949 13.8948L37.1011 9.32239Z" fill="white"/>
<path opacity="0.8" d="M29.2073 13.8948V23.0382L37.1011 18.4659L29.2073 13.8948Z" fill="white"/>
<path opacity="0.8" d="M37.1011 18.4658V27.6105L44.9949 23.0382L37.1011 18.4658Z" fill="white"/>
<path opacity="0.8" d="M29.2073 23.0382V32.1829L37.1011 27.6106L29.2073 23.0382Z" fill="white"/>
<path d="M37.1011 27.6106V36.7553L44.9949 32.183L37.1011 27.6106Z" fill="white"/>
<path opacity="0.4" d="M8.78613 13.583V22.7265L16.68 18.1554L8.78613 13.583Z" fill="white"/>
<path opacity="0.2" d="M18.7446 16.9832V26.1279L26.6385 21.5555L18.7446 16.9832Z" fill="white"/>
<path opacity="0.3" d="M12.8965 22.7637V31.9084L20.7903 27.336L12.8965 22.7637Z" fill="white"/>
<path opacity="0.9" d="M18.0938 29.6665V38.8112L25.9876 34.2389L18.0938 29.6665Z" fill="white"/>
<path opacity="0.7" d="M29.1357 33.6052V42.75L37.0296 38.1776L29.1357 33.6052Z" fill="white"/>
<path opacity="0.9" d="M20.0603 12.4724V21.6159L27.9541 17.0435L20.0603 12.4724Z" fill="white"/>
<path opacity="0.8" d="M29.2022 4.75V13.8947L21.3083 9.32236L29.2022 4.75Z" fill="white"/>
<path opacity="0.6" d="M20.0591 8.62854V17.7733L12.1653 13.2009L20.0591 8.62854Z" fill="white"/>
<path opacity="0.6" d="M27.9605 13.1611V22.3059L20.0667 17.7335L27.9605 13.1611Z" fill="white"/>
<path opacity="0.95" d="M18.7127 16.9832V26.1279L10.8188 21.5555L18.7127 16.9832Z" fill="white"/>
<path opacity="0.6" d="M29.2058 23.0382V32.1829L21.312 27.6106L29.2058 23.0382Z" fill="white"/>
<path opacity="0.55" d="M12.8938 25.1621V34.3068L5 29.7345L12.8938 25.1621Z" fill="white"/>
<path d="M44.9949 13.8948V23.0382L37.1011 18.4659L44.9949 13.8948Z" fill="white"/>
<path opacity="0.95" d="M37.1011 18.4658V27.6105L29.2073 23.0382L37.1011 18.4658Z" fill="white"/>
<path opacity="0.9" d="M45 23.0382V32.1829L37.1062 27.6106L45 23.0382Z" fill="white"/>
<path opacity="0.7" d="M37.0999 27.6106V36.7553L29.2061 32.183L37.0999 27.6106Z" fill="white"/>
<path opacity="0.4" d="M27.4527 31.4301V40.5735L19.5588 36.0011L27.4527 31.4301Z" fill="white"/>
<path d="M37.1011 9.32239V18.4658L29.2073 13.8948L37.1011 9.32239Z" fill="white"/>
</g>
</svg>
