<svg width="50" height="45" viewBox="0 0 50 45" fill="none" xmlns="http://www.w3.org/2000/svg">
<g opacity="0.75">
<path d="M31.586 26.6916C31.7225 27.6783 31.9917 28.4154 32.3922 28.9037C33.1254 29.7929 34.381 30.2372 36.1597 30.2372C37.2252 30.2372 38.0901 30.1202 38.7546 29.8857C40.0153 29.4362 40.6457 28.6011 40.6457 27.3804C40.6457 26.667 40.3329 26.1152 39.7077 25.7244C39.0821 25.3435 38.1001 25.0067 36.7607 24.7135L34.4738 24.201C32.2259 23.6928 30.6722 23.1409 29.812 22.545C28.356 21.5489 27.6276 19.9909 27.6276 17.8712C27.6276 15.9371 28.3314 14.3304 29.7386 13.051C31.1462 11.7715 33.2131 11.1316 35.9398 11.1316C38.2171 11.1316 40.1594 11.7346 41.7671 12.9411C43.3752 14.1475 44.2179 15.8983 44.2961 18.1937H39.9566C39.8784 16.8944 39.3115 15.9717 38.256 15.4246C37.5527 15.0632 36.6777 14.8822 35.6322 14.8822C34.4691 14.8822 33.5406 15.1167 32.8468 15.5856C32.1529 16.0546 31.8059 16.7087 31.8059 17.5491C31.8059 18.3207 32.1477 18.8972 32.8321 19.278C33.2719 19.5319 34.2099 19.8299 35.6469 20.1719L39.3703 21.0652C41.0026 21.456 42.2339 21.9785 43.0648 22.6331C44.3549 23.6492 44.9999 25.119 44.9999 27.0431C44.9999 29.0165 44.2449 30.655 42.7349 31.959C41.2249 33.2631 39.0921 33.9149 36.3355 33.9149C33.5212 33.9149 31.3073 33.2725 29.6949 31.9879C28.0821 30.7037 27.2759 28.9383 27.2759 26.6916H31.586Z" fill="white"/>
<path fill-rule="evenodd" clip-rule="evenodd" d="M5 4.5V40.5H36.2811V37.1842H8.79165V7.81579H36.2811V4.5H5Z" fill="white"/>
</g>
</svg>
