<svg width="32" height="50" viewBox="0 0 32 50" fill="none" xmlns="http://www.w3.org/2000/svg">
<path opacity="0.75" fill-rule="evenodd" clip-rule="evenodd" d="M28.7809 20.9125L27.3561 22.5934L3.29521 36.5049C3.29521 36.5049 3.10311 14.0929 3.39126 13.9168C3.69542 13.7407 4.09564 13.9808 4.09564 13.9808L15.3977 20.5123C15.3977 20.5123 15.6378 20.7845 15.6698 21.0886C15.7179 21.3928 15.2376 21.761 15.2376 21.761C15.2376 21.761 11.4116 23.9702 11.1714 24.1142C10.9313 24.2583 10.371 23.9542 10.371 23.9542L8.67409 23.1377V26.8517L22.0413 19.1356L8.56203 11.3554C8.56203 11.3554 8.43396 12.9403 8.48199 14.0128C8.51401 15.1014 7.48946 14.6051 7.48946 14.6051L3.26319 12.1558L3.21517 7.49734C3.19916 5.57631 5.63246 5.06403 5.63246 5.06403L8.51401 5L27.3721 15.9018L28.7809 17.5347V20.9125ZM28.7808 32.3747C28.7808 32.3747 27.5482 33.8795 27.3561 33.9916L27.3721 33.9756L9.23435 44.6053C9.18137 44.6249 9.12953 44.6449 9.07769 44.6649C8.58128 44.8561 8.08439 45.0475 6.57693 44.9895C4.89602 44.9254 3.31117 43.3886 3.31117 42.7963L3.29517 37.7216C3.29517 37.7216 6.75302 35.7845 7.55345 35.3203C8.35388 34.856 8.56199 35.7525 8.56199 35.7525L8.67405 38.474L21.9932 30.7899C21.9932 30.7899 20.3123 29.7333 19.704 29.3331C19.0956 28.9329 19.9281 28.3245 19.9281 28.3245L24.3464 25.7792L27.3401 27.4121L28.7808 29.3331V32.3747Z" fill="white"/>
</svg>
