<svg width="50" height="45" viewBox="0 0 50 45" fill="none" xmlns="http://www.w3.org/2000/svg">
<path opacity="0.75" d="M35.2872 15.503C34.5561 15.0757 33.6162 15.0757 32.7807 15.503L26.9321 19.0282L22.9634 21.2715L17.2193 24.7968C16.4882 25.224 15.5483 25.224 14.7128 24.7968L10.2219 22.0193C9.49084 21.592 8.96867 20.7374 8.96867 19.7759V14.4347C8.96867 13.5801 9.38642 12.7255 10.2219 12.1914L14.7128 9.52078C15.4438 9.09346 16.3838 9.09346 17.2193 9.52078L21.7102 12.2982C22.4412 12.7255 22.9634 13.5801 22.9634 14.5415V18.0668L26.9321 15.7166V12.0846C26.9321 11.23 26.5144 10.3754 25.6789 9.84124L17.3237 4.82048C16.5927 4.39317 15.6527 4.39317 14.8172 4.82048L6.25326 9.94805C5.41776 10.3754 5 11.23 5 12.0846V22.1261C5 22.9807 5.41776 23.8353 6.25326 24.3694L14.7128 29.3902C15.4438 29.8175 16.3838 29.8175 17.2193 29.3902L22.9634 25.9718L26.9321 23.6217L32.6762 20.2033C33.4073 19.7759 34.3473 19.7759 35.1828 20.2033L39.6736 22.8739C40.4047 23.3012 40.9269 24.1558 40.9269 25.1172V30.4585C40.9269 31.3131 40.5091 32.1677 39.6736 32.7018L35.2872 35.3724C34.5561 35.7997 33.6162 35.7997 32.7807 35.3724L28.2898 32.7018C27.5588 32.2745 27.0366 31.4199 27.0366 30.4585V27.04L23.0679 29.3902V32.9155C23.0679 33.7701 23.4856 34.6247 24.3211 35.1587L32.7807 40.1795C33.5118 40.6068 34.4517 40.6068 35.2872 40.1795L43.7467 35.1587C44.4778 34.7315 45 33.8769 45 32.9155V22.7671C45 21.9125 44.5822 21.0579 43.7467 20.5237L35.2872 15.503Z" fill="white"/>
</svg>
