<svg width="45" height="50" viewBox="0 0 45 50" fill="none" xmlns="http://www.w3.org/2000/svg">
<path opacity="0.75" d="M38.9608 13.8879L24.034 5.40884C23.5602 5.13776 23.0277 5 22.4953 5C21.9628 5 21.4303 5.13332 20.9566 5.40884L6.03871 13.8879C5.08661 14.4301 4.5 15.43 4.5 16.5143V33.4813C4.5 34.5656 5.08661 35.5655 6.03871 36.1077L11.1101 38.9909L12.6267 39.8539V39.853L13.5062 37.4879L13.5035 37.4866L21.5567 15.7455C21.6379 15.5322 21.4755 15.3011 21.2408 15.3011H17.4595C17.1752 15.3011 16.9225 15.4744 16.8277 15.7366L9.59038 35.2638L7.29766 33.9612C7.12619 33.8635 7.01789 33.6768 7.01789 33.4857V16.5143C7.01789 16.3187 7.12619 16.1365 7.29766 16.0388L22.2155 7.55527C22.3012 7.50639 22.4005 7.47972 22.4953 7.47972C22.59 7.47972 22.6893 7.50639 22.775 7.55083L37.6929 16.0343C37.8643 16.1321 37.9726 16.3187 37.9726 16.5098V33.4768C37.9726 33.6724 37.8643 33.8546 37.6929 33.9523L35.4259 35.2415L29.4488 19.1095C29.3405 18.8162 28.9209 18.8162 28.8171 19.1095L26.8497 24.4201C26.7955 24.5667 26.7955 24.7267 26.8497 24.8778L31.5132 37.4666L29.9578 38.351L26.1367 28.0374C26.0329 27.7486 25.6133 27.7486 25.505 28.0374L23.5376 33.348C23.4835 33.4946 23.4835 33.6546 23.5376 33.8057L26.0456 40.576L22.775 42.4358C22.6938 42.4847 22.59 42.5069 22.4953 42.5069C22.4005 42.5069 22.3012 42.4803 22.2155 42.4358L18.972 40.5934L28.1718 15.7499C28.253 15.5322 28.0906 15.3011 27.8604 15.3011H24.0746C23.7903 15.3011 23.5376 15.4744 23.4429 15.7366L14.1835 40.7338L14.1867 40.7356L14.184 40.7383L20.9615 44.5912C21.4398 44.8622 21.9678 45 22.5002 45C23.0327 45 23.5651 44.8667 24.0389 44.5912L38.9613 36.1077C39.9134 35.5655 40.5 34.5656 40.5 33.4813V16.5143C40.5 15.43 39.9134 14.4301 38.9613 13.8879H38.9608Z" fill="white"/>
</svg>
