<svg width="30" height="50" viewBox="0 0 30 50" fill="none" xmlns="http://www.w3.org/2000/svg">
<path opacity="0.75" fill-rule="evenodd" clip-rule="evenodd" d="M17.4 18.8694L24.5999 14.6482V23.0905L17.4 18.8694ZM24.5999 36.9598L15 42.5879L5.4 36.9598V27.1105L15 32.7387L24.5999 27.1105V36.9598ZM5.4 14.6482L12.6 18.8694L5.4 23.0905V14.6482ZM16.2 20.8794L23.4 25.1005L16.2 29.3216V20.8794ZM13.8 29.3216L6.6 25.1005L13.8 20.8794V29.3216ZM23.4 12.6382L15 17.4623L6.6 12.6382L15 7.61307L23.4 12.6382ZM3 11.8342V38.1658L15 45L27 38.1658V11.8342L15 5L3 11.8342Z" fill="white"/>
</svg>
