<svg width="50" height="50" viewBox="0 0 50 50" fill="none" xmlns="http://www.w3.org/2000/svg">
<g opacity="0.75">
<path d="M25.0007 8.05579C26.6945 8.05579 28.2179 8.99701 28.9759 10.5122L41.4756 35.5125C42.1693 36.9008 42.0968 38.5167 41.2816 39.8369C40.4655 41.1571 39.0528 41.9451 37.5004 41.9451H12.5C10.9486 41.9451 9.53494 41.1571 8.71976 39.8369C7.90367 38.5167 7.83113 36.9008 8.52571 35.5125L21.0254 10.5122C21.7835 8.99701 23.3068 8.05579 25.0007 8.05579ZM25.0007 5C22.1598 5 19.5628 6.60497 18.2924 9.14572L5.79182 34.1461C4.62935 36.471 4.75358 39.2321 6.12007 41.4428C7.48656 43.6535 9.90036 45 12.5 45H37.5004C40.1001 45 42.5139 43.6544 43.8804 41.4428C45.2469 39.2321 45.3711 36.471 44.2086 34.1461L31.7089 9.14572C30.4385 6.60497 27.8416 5 25.0007 5Z" fill="white"/>
</g>
</svg>
