<svg width="50" height="46" viewBox="0 0 50 46" fill="none" xmlns="http://www.w3.org/2000/svg">
<path opacity="0.75" d="M34.958 26.5899C35.936 24.882 37.5142 24.882 38.4922 26.5899L44.5826 37.3989C45.5606 39.1067 44.7604 40.5 42.8043 40.5H30.5347C28.6009 40.5 27.8007 39.1067 28.7565 37.3989L34.958 26.5899ZM23.1773 5.7809C24.1553 4.07303 25.7113 4.07303 26.6893 5.7809L28.0452 8.25281L31.246 13.9382C32.024 15.5562 32.024 17.4663 31.246 19.0843L20.51 37.8933C19.532 39.4214 17.9094 40.3877 16.1089 40.5H7.19563C5.23959 40.5 4.43939 39.1292 5.41741 37.3989L23.1773 5.7809Z" fill="white"/>
</svg>
