<svg width="50" height="50" viewBox="0 0 50 50" fill="none" xmlns="http://www.w3.org/2000/svg">
<g opacity="0.75">
<path d="M41.7197 15L40.1994 16.472C41.4078 18.312 41.7879 20.62 40.9595 22.826C39.5776 26.572 35.2954 28.546 31.3913 27.208C30.8377 27.008 30.3213 26.774 29.8709 26.472L25.0001 31.188L20.7509 27.04C18.7823 28.31 16.2601 28.678 13.8763 27.876C9.86892 26.472 7.79704 22.224 9.24715 18.378C9.45372 17.776 9.76564 17.24 10.1106 16.74L8.28041 14.968L7.93544 15.536C6.03501 18.546 5.0001 22.024 5.0001 25.602C4.96499 36.27 13.9466 45 24.9649 45H25.0001C36.0184 45 44.9669 36.338 45 25.668C45 22.122 43.9981 18.644 42.0977 15.602L41.7197 15Z" fill="white"/>
<path d="M12.358 18.914C11.8395 19.582 11.5296 20.42 11.5296 21.322C11.5296 23.496 13.3598 25.268 15.6052 25.268C16.5389 25.268 17.4024 24.966 18.0923 24.432L12.358 18.914ZM32.3579 24.096C33.0148 24.53 33.775 24.764 34.6385 24.764C36.8839 24.764 38.714 22.992 38.714 20.818C38.714 20.016 38.4724 19.246 38.0241 18.61L32.3579 24.096ZM25.0681 28.244L8.55713 12.19L9.21402 11.522C13.2896 7.342 18.8504 5 24.8265 5H24.8616C30.9058 5 36.7103 7.508 40.7508 11.856L41.3726 12.524L25.0681 28.244ZM11.2528 12.19L25.0702 25.602L38.714 12.458C35.0516 8.914 30.0774 6.872 24.8967 6.872H24.8616C19.7139 6.872 14.9132 8.746 11.2528 12.19Z" fill="white"/>
</g>
</svg>
