<svg width="50" height="50" viewBox="0 0 50 50" fill="none" xmlns="http://www.w3.org/2000/svg">
<path opacity="0.75" fill-rule="evenodd" clip-rule="evenodd" d="M45 25C45 13.96 36.04 5 25 5C13.96 5 5 13.96 5 25C5 36.04 13.96 45 25 45C36.04 45 45 36.04 45 25ZM19.1763 30.312C17.9763 30.312 17.0003 30.024 16.2483 29.464C15.4963 28.888 15.1123 28.072 15.1123 27.032C15.1123 26.808 15.1443 26.536 15.1923 26.216C15.3203 25.496 15.5123 24.632 15.7523 23.608C16.4403 20.856 18.2003 19.48 21.0323 19.48C21.8003 19.48 22.5043 19.608 23.1123 19.88C23.7203 20.136 24.2003 20.52 24.5523 21.032C24.9043 21.544 25.0803 22.136 25.0803 22.84C25.0803 23.048 25.0483 23.32 25.0003 23.64C24.8403 24.536 24.6643 25.4 24.4563 26.248C24.1043 27.624 23.4963 28.648 22.6323 29.336C21.7683 30.008 20.6163 30.344 19.1763 30.344V30.312ZM19.4003 28.152C19.9603 28.152 20.4403 27.976 20.8243 27.656C21.2243 27.32 21.5123 26.824 21.6883 26.136C21.9283 25.192 22.1043 24.376 22.2163 23.672C22.2643 23.464 22.2803 23.24 22.2803 23.016C22.2803 22.104 21.8003 21.64 20.8563 21.64C20.2963 21.64 19.8163 21.816 19.4163 22.136C19.0163 22.472 18.7443 22.968 18.5683 23.656C18.3763 24.328 18.2003 25.144 18.0243 26.12C17.9763 26.328 17.9603 26.536 17.9603 26.76C17.9443 27.688 18.4403 28.152 19.4003 28.152ZM25.496 30.056C25.56 30.136 25.64 30.168 25.752 30.168L25.736 30.184H27.784C27.88 30.184 27.976 30.152 28.072 30.072C28.168 30.008 28.216 29.912 28.248 29.8L28.936 26.504H30.968C32.28 26.504 33.32 26.232 34.072 25.672C34.84 25.112 35.336 24.264 35.592 23.112C35.656 22.84 35.688 22.584 35.688 22.328C35.688 21.464 35.352 20.792 34.664 20.328C33.992 19.88 33.112 19.64 31.992 19.64H27.992C27.896 19.64 27.8 19.672 27.704 19.752C27.608 19.816 27.544 19.912 27.528 20.024L25.448 29.784C25.432 29.88 25.448 29.976 25.496 30.056ZM32.168 24.072C31.848 24.312 31.496 24.424 31.064 24.424V24.408H29.336L29.912 21.72H31.72C32.136 21.72 32.424 21.8 32.6 21.96C32.76 22.12 32.856 22.344 32.856 22.632C32.856 22.76 32.84 22.904 32.808 23.08C32.696 23.512 32.488 23.832 32.168 24.072Z" fill="white"/>
</svg>
