<svg width="30" height="30" viewBox="0 0 30 30" fill="none" xmlns="http://www.w3.org/2000/svg">
<path fill-rule="evenodd" clip-rule="evenodd" d="M4 0C1.79086 0 0 1.79086 0 4V26C0 28.2091 1.79086 30 4 30H26C28.2091 30 30 28.2091 30 26V4C30 1.79086 28.2091 0 26 0H4ZM22.1177 8.75951C22.1252 8.75951 22.1402 8.78201 22.1402 8.78201H22.1477C24.3977 12.0895 25.5077 15.8245 25.0952 20.122C25.0952 20.137 25.0877 20.152 25.0727 20.167C23.3702 21.4195 21.7202 22.177 20.0927 22.6795C20.0702 22.687 20.0402 22.6795 20.0252 22.657C19.6427 22.132 19.3052 21.577 19.0052 20.9995C18.9902 20.962 19.0052 20.9245 19.0427 20.9095C19.5827 20.6995 20.1002 20.4595 20.5952 20.167C20.6327 20.1445 20.6327 20.092 20.5952 20.062C20.4902 19.987 20.3852 19.9045 20.2877 19.822C20.2652 19.807 20.2427 19.807 20.2202 19.8145C16.9952 21.2995 13.4702 21.2995 10.2077 19.8145C10.1852 19.807 10.1552 19.807 10.1402 19.822C10.0427 19.9045 9.93771 19.987 9.83271 20.062C9.78771 20.0845 9.79521 20.1445 9.83271 20.167C10.3277 20.452 10.8452 20.707 11.3852 20.9095C11.4227 20.9245 11.4377 20.962 11.4227 20.9995C11.1302 21.5845 10.7852 22.132 10.4027 22.657C10.3877 22.6795 10.3577 22.687 10.3352 22.6795C8.71521 22.177 7.06521 21.4195 5.36271 20.167C5.34771 20.1595 5.33271 20.137 5.33271 20.122C4.98771 16.402 5.69271 12.637 8.27271 8.78201C8.27448 8.78024 8.27625 8.77805 8.27812 8.77574C8.28417 8.76826 8.29125 8.75951 8.30271 8.75951C9.57771 8.17451 10.9352 7.74701 12.3602 7.49951C12.3902 7.49201 12.4127 7.50701 12.4277 7.52951C12.6002 7.83701 12.8027 8.23451 12.9377 8.56451C14.4377 8.33201 15.9602 8.33201 17.4902 8.56451C17.6252 8.24951 17.8202 7.84451 17.9927 7.52951C18.0077 7.49951 18.0302 7.49951 18.0602 7.49951C19.4852 7.74701 20.8427 8.17451 22.1177 8.75951ZM10.1177 15.847C10.1177 16.957 10.9277 17.857 11.9102 17.857C12.9077 17.857 13.7027 16.957 13.7027 15.847C13.7177 14.7445 12.9077 13.837 11.9102 13.837C10.9127 13.837 10.1177 14.737 10.1177 15.847ZM16.7402 15.847C16.7402 16.957 17.5502 17.857 18.5327 17.857C19.5377 17.857 20.3252 16.957 20.3252 15.847C20.3402 14.7445 19.5302 13.837 18.5327 13.837C17.5352 13.837 16.7402 14.737 16.7402 15.847Z" fill="#1C3144"/>
</svg>
