<svg width="30" height="30" viewBox="0 0 30 30" fill="none" xmlns="http://www.w3.org/2000/svg">
<path fill-rule="evenodd" clip-rule="evenodd" d="M4 0C1.79086 0 0 1.79086 0 4V26C0 28.2091 1.79086 30 4 30H10.4266C11.2451 30 11.4765 29.6682 11.4765 29.2442V29.2442C11.4765 28.8202 11.4765 27.8985 11.4587 26.5899C7.20599 27.53 6.29852 24.4885 6.29852 24.4885C5.60457 22.7005 4.59033 22.2028 4.59033 22.2028C3.20243 21.2442 4.69709 21.2627 4.69709 21.2627C6.22734 21.3733 7.04585 22.8664 7.04585 22.8664C8.41595 25.2627 10.6224 24.5622 11.4942 24.1567C11.5654 23.3641 11.9035 22.6083 12.4729 22.0553C9.07432 21.6682 5.49781 20.3226 5.49781 14.3502C5.48001 12.8018 6.04941 11.2903 7.08144 10.1659C6.9035 9.7788 6.38749 8.19355 7.20599 6.03686C7.20599 6.03686 8.48713 5.6129 11.4231 7.64055C13.932 6.94009 16.5654 6.94009 19.0743 7.64055C21.9747 5.63133 23.2736 6.03686 23.2736 6.03686C24.0921 8.17511 23.5761 9.76037 23.4337 10.1659C24.4658 11.2903 25.0174 12.8018 24.9996 14.3502C24.9996 20.341 21.4231 21.6498 18.0067 22.0369C18.5405 22.4977 19.0387 23.4562 19.0387 24.9124C19.0387 26.3259 19.0307 27.5393 19.0254 28.3336C19.0228 28.7202 19.0209 29.0076 19.0209 29.1705C19.0209 29.576 19.1989 30 20.0708 30H26C28.2091 30 30 28.2091 30 26V4C30 1.79086 28.2091 0 26 0H4Z" fill="#1C3144"/>
</svg>
