<svg width="30" height="30" viewBox="0 0 30 30" fill="none" xmlns="http://www.w3.org/2000/svg">
<path fill-rule="evenodd" clip-rule="evenodd" d="M4 0C1.79086 0 0 1.79086 0 4V26C0 28.2091 1.79086 30 4 30H26C28.2091 30 30 28.2091 30 26V4C30 1.79086 28.2091 0 26 0H4ZM21.9344 8.06988L7.745 13.7797C6.77247 14.1765 6.78964 14.7384 7.57821 14.9995L11.2108 16.1822L19.6374 10.6451C20.0286 10.3738 20.3916 10.5274 20.0948 10.8L13.276 17.2292L13.0148 21.1369C13.395 21.1369 13.5606 20.9641 13.7568 20.7593L15.5314 18.975L19.2106 21.805C19.8814 22.2018 20.3609 21.997 20.54 21.1548L22.956 9.27559L22.9548 9.27687C23.1682 8.23756 22.593 7.82157 21.9344 8.06988Z" fill="#1C3144"/>
</svg>
