<svg width="30" height="30" viewBox="0 0 30 30" fill="none" xmlns="http://www.w3.org/2000/svg">
<path fill-rule="evenodd" clip-rule="evenodd" d="M4 0C1.79086 0 0 1.79086 0 4V26C0 28.2091 1.79086 30 4 30H26C28.2091 30 30 28.2091 30 26V4C30 1.79086 28.2091 0 26 0H4ZM21.8732 10.2166C22.6065 10.1294 23.3228 9.94135 24 9.65836C23.5095 10.3713 22.8873 10.9927 22.164 11.4922C22.1768 11.6427 22.1768 11.7932 22.1768 11.9489C22.1768 16.6157 18.4627 21.9999 11.669 21.9999C9.65881 22.0076 7.68949 21.4569 6 20.4146C6.29296 20.4496 6.58804 20.466 6.88327 20.4636C8.54022 20.4637 10.1496 19.9333 11.455 18.957C10.6847 18.9384 9.93925 18.6918 9.32131 18.2512C8.70337 17.8107 8.24326 17.1977 8.00427 16.4967C8.23484 16.5404 8.46965 16.5603 8.70466 16.5562C9.03105 16.5589 9.35637 16.5201 9.67205 16.4407C8.83786 16.2755 8.08854 15.8406 7.55003 15.209C7.01153 14.5774 6.71667 13.7877 6.71503 12.9725V12.934C7.22636 13.2052 7.7984 13.3547 8.38281 13.3698C7.59983 12.8691 7.04623 12.1013 6.83515 11.2231C6.62408 10.345 6.77146 9.42285 7.24718 8.64521C8.17269 9.73835 9.3288 10.6324 10.64 11.2689C11.9512 11.9054 13.3879 12.2701 14.8564 12.3391C14.7967 12.0747 14.7679 11.8047 14.7705 11.5342C14.7699 10.8254 14.9921 10.1329 15.4084 9.54667C15.8247 8.96043 16.4157 8.50763 17.1045 8.24714C17.7934 7.98666 18.5482 7.93055 19.2708 8.08611C19.9935 8.24168 20.6505 8.60172 21.1564 9.11941C21.9819 8.96407 22.7736 8.67467 23.4971 8.26374C23.2241 9.08304 22.6462 9.77793 21.8732 10.2166Z" fill="#1C3144"/>
</svg>
